<svg width="105" height="106" viewBox="0 0 105 106" fill="none" xmlns="http://www.w3.org/2000/svg">
<path fill-rule="evenodd" clip-rule="evenodd" d="M21.7919 0.588523C21.1518 1.22257 21.0553 1.81694 21.4528 2.67923C21.6226 3.04775 29.81 8.13996 46.3512 18.1652C59.9062 26.3806 72.0837 33.8166 73.4121 34.6896C76.1829 36.5105 79.3276 39.6004 81.0858 42.2291C84.4036 47.1906 86.1246 53.3812 85.7499 59.0066C85.6476 60.5399 83.7192 70.5979 79.9477 89.2654C73.8225 119.583 74.0664 117.964 75.5084 118.764C76.0903 119.088 76.2408 119.083 77.0092 118.72C77.506 118.485 77.9187 118.089 77.9953 117.772C78.0679 117.472 80.6338 104.86 83.6972 89.7433L89.2672 62.2592L89.3849 58.4354C89.4743 55.5302 89.407 54.0659 89.1053 52.3411C88.6442 49.7045 87.3978 45.8627 86.3007 43.6965C84.2259 39.5987 80.6263 35.3036 77.042 32.6479C76.1079 31.9558 65.0876 25.1689 52.5526 17.5656C22.6905 -0.547646 23.6161 0.00179755 22.956 0.00179755C22.6413 0.00179755 22.1174 0.265884 21.7919 0.588523ZM17.341 13.8633C16.7069 14.4917 16.6997 15.8508 17.3277 16.4232C18.0886 17.117 50.8096 37.5257 52.035 38.0711C52.8162 38.4186 53.8127 38.5988 55.3261 38.6657C57.1785 38.7479 57.7752 38.6712 59.3966 38.1428C61.5238 37.4495 62.011 37.4048 63.1886 37.7955C65.6489 38.6117 66.9717 41.0243 66.3051 43.4783C66.102 44.2249 65.5601 45.0009 64.375 46.2418C62.6629 48.0342 61.7302 49.5616 61.2349 51.3851C60.8497 52.8026 59.2978 54.3469 57.8775 54.726C55.9847 55.231 53.5329 54.2277 52.684 52.6009C52.4913 52.2316 52.1525 51.1884 51.9313 50.2831C51.118 46.9556 49.1737 43.8303 46.7644 41.9781C45.7799 41.221 17.5539 23.4429 14.8909 21.9021C13.6527 21.1858 12.8599 21.2181 12.1333 22.0137C11.6034 22.5937 11.5921 23.7619 12.1108 24.33C12.3293 24.5692 19.6278 29.2219 28.3296 34.6693C38.9346 41.3082 44.5431 44.9605 45.3407 45.7468C46.7414 47.1277 47.8118 49.1782 48.3465 51.5046C49.0632 54.6232 50.5713 56.5624 53.2471 57.8056C54.3978 58.3403 54.9303 58.4351 56.7731 58.4342C59.3397 58.4327 60.5702 57.9767 62.3192 56.3793C63.6466 55.1669 64.4049 53.9318 65.0076 52.0007C65.3587 50.8751 65.8035 50.2028 67.1762 48.7211C69.6432 46.0582 70.0385 45.1546 70.0349 42.1839C70.0317 39.3542 69.5402 38.0907 67.7543 36.3209C66.1558 34.7372 64.6656 34.1021 62.2748 33.9865C60.596 33.9052 60.0092 33.9889 58.356 34.5455C56.2025 35.2708 54.7 35.2622 53.2288 34.5163C52.7906 34.2941 44.9813 29.4487 35.8753 23.7488C18.4195 12.8228 18.4012 12.8127 17.341 13.8633ZM0.883884 30.7223C0.15457 31.1205 -0.156788 31.9464 0.0759459 32.8651C0.159393 33.1949 1.25023 34.4781 2.50024 35.7165C10.8189 43.9599 24.8427 52.9127 39.565 59.3787L42.1333 60.5065L40.9694 62.9363C39.3829 66.2485 38.1952 69.7552 37.5794 72.9446C37.155 75.1428 37.0865 76.1636 37.1914 78.7349C37.2616 80.4518 37.4458 82.717 37.6014 83.7685C38.2803 88.36 36.9702 97.0369 34.0747 107.13C32.7709 111.675 32.7357 111.873 33.1228 112.458C33.9201 113.664 35.4747 113.694 36.246 112.518C37.1195 111.186 40.0276 99.7662 40.8587 94.4037C41.5019 90.2529 41.5984 84.8794 41.095 81.2469C40.7227 78.5604 40.7029 77.8045 40.9511 75.7754C41.4867 71.3952 42.7756 67.5314 45.3356 62.6314C46.1214 61.1271 46.7644 59.708 46.7644 59.4779C46.7644 58.661 45.6407 57.8833 42.6644 56.6403C28.0422 50.5345 13.4274 41.3159 4.89342 32.8149C3.67935 31.6056 2.42885 30.5589 2.11484 30.4888C1.80083 30.4188 1.24685 30.524 0.883884 30.7223ZM99.5424 31.1683C98.4328 31.7392 91.0352 37.7919 90.7055 38.399C90.0886 39.5342 90.9677 40.8694 92.3323 40.8694C93.099 40.8694 93.7366 40.446 97.4616 37.4638C102.443 33.4757 102.833 32.9442 101.692 31.701C100.979 30.924 100.33 30.7632 99.5424 31.1683ZM99.6092 42.7924C96.9052 43.6979 94.4903 44.6204 94.2431 44.8422C93.2914 45.6959 93.7757 47.4226 95.0983 47.8906C95.7082 48.1064 105.79 44.7975 106.516 44.1434C107.629 43.1392 106.798 41.0905 105.292 41.1268C104.871 41.1371 102.313 41.8866 99.6092 42.7924ZM72.7259 49.2817C72.2146 49.3886 71.4677 49.7081 71.0659 49.9915C70.3306 50.5104 66.9869 55.3815 66.383 56.8138C65.3563 59.2484 66.881 62.1352 69.5554 62.8211C70.6214 63.0945 77.0268 63.4989 78.3571 63.3768C80.8533 63.1476 82.7287 60.6958 82.3452 58.1629C82.1841 57.0982 81.6542 56.3081 77.9052 51.544C76.3457 49.5623 74.7392 48.8606 72.7259 49.2817ZM94.9114 52.5975C94.1225 53.2124 94.04 54.4973 94.7447 55.1956C95.3043 55.7501 95.4533 55.7763 101.697 56.4235C106.219 56.892 106.631 56.901 107.18 56.5445C108.247 55.8519 108.28 54.0613 107.236 53.4968C106.772 53.2459 97.989 52.1475 96.1776 52.1138C95.8307 52.1073 95.2608 52.3251 94.9114 52.5975ZM76.3727 55.6788C77.5974 57.2516 78.5995 58.7499 78.5995 59.0085C78.5995 59.7309 77.9314 59.8043 73.9557 59.5187C69.9775 59.2329 69.4093 59.0173 69.9575 58.0023C71.0379 56.0017 73.3457 52.8191 73.7162 52.8191C73.9808 52.8191 75.0028 53.9191 76.3727 55.6788ZM55.5004 61.9156C54.0025 62.2081 52.1566 63.2836 51.0881 64.4864C48.5896 67.2991 48.5247 71.4688 50.9287 74.7392C52.2089 76.4809 52.7566 77.7134 53.047 79.5059C53.3007 81.0703 53.2139 81.7137 51.0028 94.6699C49.7327 102.112 48.6938 108.435 48.6938 108.722C48.6938 109.425 49.7373 110.416 50.4782 110.416C50.8084 110.416 51.3561 110.174 51.6954 109.878C52.2805 109.368 52.4288 108.656 54.6028 95.9218C56.0687 87.336 56.8937 81.8664 56.8937 80.7362C56.8937 77.821 55.9418 75.0902 54.0862 72.6822C52.6283 70.7898 52.5005 69.1209 53.676 67.3189C54.358 66.2733 55.8376 65.4988 57.1682 65.4909C57.6505 65.488 58.7484 65.8116 59.6077 66.21C60.4667 66.6084 61.7541 66.9999 62.4685 67.0799C64.2213 67.2764 64.6198 67.518 67.2049 69.9545C70.119 72.701 70.142 72.9393 67.7234 75.3622C66.7821 76.3053 65.5746 77.7094 65.0401 78.4823C63.7986 80.2773 62.3436 83.3615 61.8696 85.2025C61.3837 87.0896 57.6172 109.156 57.6172 110.116C57.6172 110.981 58.5455 111.85 59.4695 111.85C60.0259 111.85 61.2349 110.904 61.2349 110.469C61.2349 109.887 65.1675 87.394 65.4783 86.1988C66.3012 83.0327 67.8243 80.5125 70.5551 77.7975C72.5889 75.7757 73.0985 74.7963 73.1169 72.8757C73.1369 70.7647 72.4698 69.7 69.382 66.9143C66.2947 64.1293 65.8153 63.844 63.7269 63.551C62.8775 63.4317 61.6709 63.079 61.0456 62.7666C59.9287 62.2093 57.7496 61.6364 56.9422 61.688C56.7164 61.7024 56.0677 61.8047 55.5004 61.9156Z" fill="#EBF1F5"/>
</svg>
