<svg width="36" height="35" viewBox="0 0 36 35" fill="none" xmlns="http://www.w3.org/2000/svg">
<path fill-rule="evenodd" clip-rule="evenodd" d="M31.9609 0.647356C27.3035 1.66402 27.1156 1.66463 23.1884 0.678189L20.7375 0.0626259L14.5219 0.0639248L8.30641 0.0652921L4.50583 3.95638C0.356663 8.20434 0.342648 8.22123 0.0964637 9.26551C-0.275718 10.8446 0.550137 12.5741 2.03182 13.3181C2.72949 13.6684 3.79401 13.7681 4.60483 13.5591C5.4514 13.3408 5.73826 13.1282 7.39728 11.4898L8.94925 9.95703L9.30188 10.274C9.68514 10.6186 10.32 10.9526 10.8037 11.0641C10.9943 11.108 12.6069 11.1351 15.0889 11.1362L19.0684 11.1378L19.6807 11.4449C21.0242 12.1185 22.4041 12.4488 23.8937 12.4534C25.7178 12.4589 27.1793 12.0394 28.8592 11.0278L29.2442 10.796H32.1237H35.0031V5.39514C35.0031 2.42465 34.9801 -0.00314176 34.9519 3.05175e-06C34.9236 0.00314787 33.5777 0.294453 31.9609 0.647356ZM22.65 2.65846C23.8228 2.95811 25.0901 3.25536 25.4662 3.31901C26.3034 3.46073 28.2328 3.47899 29.0212 3.35258C29.5991 3.25994 32.688 2.61054 32.8545 2.54662C32.9383 2.51449 32.9522 2.9523 32.9522 5.6271V8.74505H30.7622H28.5721L28.073 9.08516C26.1589 10.3896 24.0838 10.7475 21.9557 10.1404C21.3607 9.97063 20.2488 9.47594 19.8934 9.22292C19.7076 9.09063 19.5858 9.08687 15.4679 9.08687H11.2335L10.9321 8.92772C10.335 8.61235 10.0485 7.76988 10.3441 7.19828C10.497 6.90273 10.8882 6.57772 11.193 6.49309C11.3565 6.44769 12.6486 6.42123 14.7157 6.42103L17.9801 6.42062V5.39514V4.36965L14.6473 4.37081C10.9551 4.37218 10.7211 4.39324 9.9629 4.79243C9.01351 5.29238 8.34469 6.26427 8.20379 7.34868L8.13338 7.89048L6.37481 9.62737C5.24343 10.7448 4.51841 11.4086 4.34203 11.4888C3.97915 11.6537 3.3346 11.653 2.97007 11.4875C2.43525 11.2445 2.0498 10.6209 2.05185 10.0019C2.05377 9.42487 2.19843 9.25355 5.76766 5.6016L9.1767 2.11359H14.8471H20.5175L22.65 2.65846ZM30.3201 21.4519C29.5135 21.6837 29.2379 21.892 27.6046 23.5041L26.0514 25.0372L25.7544 24.7635C25.3441 24.3853 24.8803 24.1265 24.348 23.9789C23.9344 23.8643 23.5639 23.8538 19.9158 23.8538H15.9348L15.3224 23.5468C12.4144 22.0888 9.16091 22.1904 6.37891 23.8261L5.75029 24.1957H2.87518H0V29.5978V35L0.153822 34.9644C2.11393 34.5117 6.16999 33.6866 6.734 33.6259C7.5064 33.5427 8.55717 33.5754 9.27925 33.7051C9.49624 33.7441 10.7104 34.0354 11.9775 34.3525L14.2813 34.929L20.489 34.9276L26.6967 34.9262L30.4977 31.0344C34.6468 26.7862 34.6607 26.7695 34.9067 25.7261C35.3446 23.8684 34.1541 21.912 32.2904 21.4265C31.7723 21.2916 30.8361 21.3037 30.3201 21.4519ZM32.0331 23.5042C32.3919 23.6672 32.7765 24.12 32.8849 24.5071C32.9853 24.8656 32.9374 25.3285 32.7653 25.6627C32.6989 25.7918 31.1105 27.4681 29.2355 29.3878L25.8264 32.8781H20.1706H14.5147L12.3677 32.3335C9.3012 31.5558 8.27086 31.4194 6.63145 31.5745C5.95511 31.6385 2.7353 32.263 2.1706 32.4396C2.05787 32.4749 2.05097 32.2974 2.05097 29.3618V26.2466H4.24762H6.4442L6.76005 26.0213C9.09931 24.3521 11.7349 24.1086 14.2788 25.3263C14.6307 25.4948 15.0047 25.6939 15.1097 25.7687C15.2956 25.901 15.4173 25.9048 19.5352 25.9048H23.7697L24.071 26.0639C24.6682 26.3793 24.9546 27.2218 24.659 27.7934C24.5062 28.0889 24.115 28.4139 23.8101 28.4986C23.6467 28.544 22.3545 28.5704 20.2875 28.5706L17.023 28.571V29.5965V30.622L20.3558 30.6208C22.9865 30.6199 23.7861 30.599 24.1515 30.5216C25.5474 30.2258 26.6265 29.0504 26.7972 27.6398L26.8624 27.1012L28.6246 25.3643C29.7551 24.2501 30.4852 23.5828 30.6611 23.5028C31.024 23.338 31.6685 23.3386 32.0331 23.5042Z" fill="#E63946"/>
</svg>
