<svg xmlns="http://www.w3.org/2000/svg" width="65" height="54" viewBox="0 0 65 54" fill="none"><path fill-rule="evenodd" clip-rule="evenodd" d="M17.0752 0.164674C8.50129 1.51254 2.27005 9.13391 2.70347 17.7427C2.81239 19.9084 3.33468 22.0845 4.23706 24.1328L4.44679 24.6089H2.9801C1.76059 24.6089 1.42886 24.6519 1.01232 24.8644C0.449033 25.1518 0 25.8832 0 26.5132C0 27.1431 0.449033 27.8745 1.01232 28.1619C1.46897 28.3949 1.75767 28.4175 4.27807 28.4175H7.04285L19.2954 40.6598C32.6174 53.9707 31.7699 53.207 32.9761 52.9883C33.3992 52.9117 34.8142 51.5412 45.7046 40.6598L57.9571 28.4175H60.7219C63.2423 28.4175 63.531 28.3949 63.9877 28.1619C64.551 27.8745 65 27.1431 65 26.5132C65 25.8832 64.551 25.1518 63.9877 24.8644C63.5711 24.6519 63.2394 24.6089 62.0199 24.6089H60.5532L60.7629 24.1328C63.8101 17.216 62.2822 9.54829 56.8495 4.49187C54.3293 2.14641 51.294 0.691022 47.7979 0.151725C46.2433 -0.0879628 43.447 -0.020297 41.958 0.293277C38.7929 0.959654 36.0048 2.41746 33.6428 4.64079L32.5 5.71672L31.3306 4.6159C28.74 2.17726 25.7034 0.694196 22.2168 0.164674C20.7712 -0.0549548 18.4722 -0.0548279 17.0752 0.164674ZM22.1806 4.0304C24.1891 4.42154 25.9139 5.1712 27.5256 6.35364C27.9225 6.64487 28.9612 7.57899 29.834 8.42945C30.7068 9.27991 31.5457 10.0405 31.6982 10.1194C32.0559 10.3048 32.9459 10.3043 33.3018 10.1184C33.4543 10.0388 34.3218 9.25325 35.2296 8.37283C37.7386 5.93926 39.3862 4.92224 41.9856 4.20267C43.0949 3.89557 43.4445 3.85863 45.2588 3.85685C46.9473 3.85507 47.4787 3.90268 48.4081 4.13843C51.697 4.97264 54.4568 6.91071 56.2993 9.67981C59.2017 14.0418 59.2465 19.6406 56.4149 24.1261L56.1101 24.6089H51.1134H46.1165L43.8636 21.0491C41.9218 17.981 41.5434 17.4551 41.1229 17.2405C40.4875 16.9164 39.9169 16.9286 39.3067 17.2794C38.8656 17.5331 38.4806 18.1443 35.65 23.0854C33.9099 26.1228 32.4464 28.6474 32.3979 28.6956C32.3493 28.7437 30.4529 25.1169 28.1836 20.636C24.2243 12.8178 24.0371 12.4772 23.5498 12.2033C22.6374 11.6902 21.5236 11.9457 21.0335 12.7801C20.9064 12.9967 19.7281 15.7324 18.4152 18.8595L16.028 24.5454L12.4674 24.579L8.90678 24.6128L8.65871 24.2616C8.52224 24.0686 8.18175 23.4536 7.90194 22.895C4.7582 16.6167 7.02686 9.07805 13.1376 5.49683C15.6627 4.01707 19.1813 3.44641 22.1806 4.0304ZM29.946 32.5408C30.6748 33.9701 30.8534 34.2265 31.2939 34.4746C31.9375 34.8375 32.5559 34.8384 33.1834 34.4774C33.6251 34.2234 34.0176 33.5985 36.9475 28.4851C38.7467 25.3454 40.2672 22.7628 40.3267 22.7461C40.3859 22.7293 41.169 23.8862 42.0667 25.3169C43.4491 27.5204 43.7736 27.9564 44.1881 28.1679C44.6432 28.4001 44.9502 28.4175 48.5861 28.4175H52.4949L42.4974 38.4149L32.5 48.4123L22.5026 38.4149L12.5051 28.4175H15.0809C17.4117 28.4175 17.7042 28.3932 18.1576 28.1619C18.7761 27.8463 18.7459 27.9051 20.8008 23.01C21.7095 20.845 22.5242 18.9177 22.6109 18.7271C22.7622 18.3951 22.9006 18.6409 25.9373 24.6369C27.68 28.0777 29.4838 31.6345 29.946 32.5408Z" fill="#DA8566"></path></svg>