<svg xmlns="http://www.w3.org/2000/svg" width="41" height="40" viewBox="0 0 41 40" fill="none"><path fill-rule="evenodd" clip-rule="evenodd" d="M15.2838 0.317063C14.4707 0.745935 13.2835 1.93571 12.8678 2.73796C12.3169 3.80125 12.167 4.44006 12.1758 5.68524C12.1825 6.6277 12.2145 6.87367 12.4053 7.45361C12.7031 8.35893 13.141 9.08008 13.8663 9.85968C14.7195 10.7769 14.766 10.8859 14.8053 12.064L14.8384 13.0534H14.4029C14.1634 13.0534 13.8934 13.0931 13.8029 13.1415C13.5966 13.2519 10.7786 18.8617 10.7786 19.1619C10.7786 19.28 10.8717 19.4697 10.9854 19.5833C11.1844 19.7825 11.2339 19.7901 12.3327 19.7901H13.4733V23.9058V28.0217L12.7996 28.1908L12.126 28.36V27.6501C12.126 27.0086 12.106 26.9201 11.9192 26.7334L11.7126 26.5267H8.75763H5.80269L5.59604 26.7334C5.42628 26.9031 5.38931 27.0235 5.38931 27.4071V27.874H2.90139H0.413377L0.206731 28.0808L0 28.2874V33.2634V38.2393L0.206731 38.4459L0.413377 38.6527H2.90139H5.38931V39.1196C5.38931 39.5032 5.42628 39.6236 5.59604 39.7933L5.80269 40H8.75763H11.7126L11.9192 39.7933C12.0997 39.6129 12.126 39.511 12.126 38.9923V38.3979L12.725 38.6997C13.9802 39.3317 13.9179 39.3265 20.1602 39.3251C26.2028 39.3237 26.3029 39.3171 27.2218 38.8521C27.4641 38.7295 29.5002 37.5679 31.7464 36.2708C33.9927 34.9736 36.5505 33.4989 37.4305 32.9936C39.7332 31.6714 40.1683 31.1595 40.1664 29.7748C40.1647 28.5521 39.3901 27.5543 38.2076 27.2517L37.7673 27.1391L37.7453 23.4646L37.7234 19.7901H38.8649C39.9646 19.7901 40.014 19.7825 40.2131 19.5833C40.3268 19.4697 40.4198 19.28 40.4198 19.1619C40.4198 18.8617 37.6018 13.2519 37.3956 13.1415C37.3051 13.0931 37.0657 13.0534 36.8637 13.0534C36.5459 13.0534 36.4517 13.0079 36.1673 12.7166L35.8384 12.3798H36.5752C37.245 12.3798 37.3305 12.361 37.5185 12.173C37.7235 11.9681 37.7252 11.9533 37.7252 10.3588C37.7252 8.76422 37.7235 8.74948 37.5185 8.54452C37.3305 8.35649 37.2451 8.33779 36.5736 8.33779H35.8354L36.3592 7.80922C37.158 7.00335 37.1484 6.96798 35.7639 5.58343C34.3793 4.19888 34.344 4.18937 33.5381 4.98808L33.0095 5.51194V4.77377C33.0095 4.10221 32.9908 4.01683 32.8028 3.82887C32.5978 3.62383 32.5831 3.62214 30.9885 3.62214C29.394 3.62214 29.3792 3.62383 29.1743 3.82887C28.9862 4.01683 28.9676 4.10221 28.9676 4.77377V5.51194L28.439 4.98808C27.6331 4.18937 27.5977 4.19888 26.2132 5.58343C24.8286 6.96798 24.8191 7.00335 25.6178 7.80922L26.1417 8.33779H25.4035C24.732 8.33779 24.6466 8.35649 24.4586 8.54452C24.2536 8.74948 24.2519 8.76422 24.2519 10.3588C24.2519 11.9533 24.2536 11.9681 24.4586 12.173C24.6466 12.361 24.7321 12.3798 25.4019 12.3798H26.1387L25.8098 12.7166L25.4808 13.0534H23.5102H21.5395L21.5726 12.064C21.6122 10.8802 21.6683 10.7483 22.516 9.85067C23.23 9.09448 23.6714 8.36853 23.9732 7.45361C24.1651 6.87181 24.1963 6.63064 24.2021 5.68524C24.2098 4.43854 24.0584 3.79477 23.5089 2.73796C23.0879 1.9283 21.9831 0.816754 21.1362 0.350831C20.3645 -0.0736616 19.9719 -0.108861 19.7108 0.223087C19.5434 0.435881 19.5363 0.544172 19.5363 2.86503V5.28508L18.8626 5.72734L18.1889 6.1696L17.5153 5.72734L16.8416 5.28508V2.86503C16.8416 0.544172 16.8344 0.435881 16.667 0.223087C16.4157 -0.0965662 16.0163 -0.0694513 15.2838 0.317063ZM15.561 6.04228C15.5706 6.05331 16.1183 6.42282 16.778 6.86331C17.4977 7.3438 18.0621 7.66413 18.1889 7.66413C18.3157 7.66413 18.8802 7.3438 19.5998 6.86331C20.2596 6.42282 20.8072 6.05331 20.8168 6.04228C20.8263 6.03117 20.8548 5.05781 20.88 3.87923L20.9257 1.73647L21.4938 2.30479C22.7826 3.59393 23.2295 5.51876 22.6261 7.18111C22.3406 7.96761 22.0802 8.37021 21.3177 9.2037C20.4141 10.1913 20.2753 10.5451 20.2282 11.9798L20.193 13.0534H19.5278H18.8626V11.9128C18.8626 10.814 18.855 10.7646 18.6559 10.5655C18.5256 10.4352 18.353 10.3588 18.1889 10.3588C18.0249 10.3588 17.8523 10.4352 17.722 10.5655C17.5228 10.7646 17.5153 10.814 17.5153 11.9128V13.0534H16.8416H16.1679V12.136C16.1679 10.6454 15.8901 9.98599 14.8038 8.89777C13.9796 8.0722 13.4713 6.79746 13.4745 5.56449C13.4777 4.39964 14.0147 3.16405 14.9045 2.27482L15.4522 1.72746L15.4979 3.87477C15.5231 5.05578 15.5515 6.03117 15.561 6.04228ZM31.6649 5.87471C31.6667 6.4885 31.7031 6.82685 31.7782 6.92562C31.9067 7.0948 32.558 7.40696 32.7882 7.40965C32.875 7.41066 33.2558 7.10903 33.6345 6.73935L34.3231 6.06729L34.8029 6.55216L35.2828 7.03711L34.6483 7.6664C34.2993 8.0125 33.9929 8.37762 33.9676 8.47766C33.913 8.69248 34.2107 9.40892 34.4207 9.56841C34.5206 9.64428 34.8557 9.68066 35.4726 9.68242L36.3779 9.68512V10.3588V11.0324L35.4726 11.0351C34.4444 11.0382 34.3595 11.0752 34.1078 11.6299C33.8726 12.1484 33.8894 12.249 34.2834 12.6764L34.631 13.0534L32.9992 13.0448C32.1018 13.04 31.4835 13.0084 31.6253 12.9745C32.0264 12.8785 32.749 12.4556 32.9791 12.1821C33.0936 12.0461 33.2876 11.7412 33.4101 11.5046C33.599 11.1401 33.6334 10.9653 33.6356 10.3588C33.6377 9.76554 33.6027 9.57093 33.4311 9.22198C33.1669 8.68473 32.6618 8.17982 32.1254 7.91684C31.5208 7.62042 30.4563 7.62042 29.8517 7.91684C27.6646 8.98914 27.8489 12.109 30.1469 12.913C30.5165 13.0423 30.4881 13.0455 28.9358 13.0494L27.3461 13.0534L27.6937 12.6764C28.0877 12.249 28.1045 12.1484 27.8693 11.6299C27.6176 11.0752 27.5326 11.0382 26.5045 11.0351L25.5992 11.0324V10.3588V9.68512H26.4374C26.8983 9.68512 27.3695 9.64234 27.4843 9.58996C27.6907 9.4959 28.0413 8.83731 28.0413 8.54343C28.0413 8.46537 27.7388 8.09157 27.3691 7.7128L26.6971 7.02423L27.1819 6.54441L27.6669 6.06451L28.2962 6.69902C28.6423 7.04806 29.0062 7.35407 29.105 7.37917C29.3725 7.44712 30.1073 7.10128 30.2197 6.85455C30.2721 6.73969 30.3149 6.26855 30.3149 5.80759V4.96947H30.9885H31.6622L31.6649 5.87471ZM31.5215 9.12632C32.3867 9.48782 32.5976 10.6221 31.9248 11.295C31.3785 11.8412 30.5986 11.8412 30.0523 11.295C29.011 10.2536 30.16 8.55749 31.5215 9.12632ZM23.494 16.4218L22.4829 18.4428H17.5146H12.5463L13.5575 16.4218L14.5687 14.4008H19.5369H24.5052L23.494 16.4218ZM37.641 16.4218L38.6521 18.4428H33.6839H28.7156L27.7044 16.4218L26.6933 14.4008H31.6615H36.6298L37.641 16.4218ZM24.8894 29.2856C24.8688 29.3062 23.2676 28.8963 21.3311 28.3749C17.2918 27.2873 16.7921 27.2136 15.5153 27.5168L14.8206 27.6819V23.736V19.7901H18.9701C22.3885 19.7901 23.149 19.7694 23.2858 19.6724C23.3772 19.6076 23.774 18.9048 24.1677 18.1105L24.8835 16.6664L24.905 22.9574C24.9169 26.4174 24.9099 29.2652 24.8894 29.2856ZM27.9502 19.7022C28.0579 19.7598 29.5367 19.7901 32.2469 19.7901H36.3795L36.3576 23.5927L36.3358 27.3953L32.9864 29.3284L29.637 31.2615L29.2313 30.882C28.6958 30.3811 28.5211 30.2991 27.3044 29.9776L26.2729 29.705L26.2774 23.1687L26.2818 16.6323L27.0338 18.1233C27.4474 18.9433 27.8598 19.6538 27.9502 19.7022ZM10.7786 33.2634V38.6527H8.75763H6.73664V33.2634V27.874H8.75763H10.7786V33.2634ZM38.1881 28.706C38.3269 28.786 38.5291 28.9821 38.6376 29.1417C38.8003 29.381 38.8291 29.514 38.802 29.9005C38.7812 30.1989 38.7052 30.4591 38.593 30.6163C38.4704 30.7883 36.6438 31.8873 32.584 34.2318C29.376 36.0843 26.5773 37.6759 26.3647 37.7685C25.9932 37.9303 25.7613 37.9379 20.4204 37.9637C16.3476 37.9833 14.7389 37.9637 14.3996 37.8902C14.1448 37.835 13.5291 37.5858 13.0312 37.3364L12.126 36.8829V33.3152V29.7476L14.1879 29.2319C15.6878 28.8567 16.4036 28.7161 16.8142 28.7161C17.2771 28.7161 18.2897 28.9594 22.4363 30.0666C25.218 30.8094 27.6556 31.4759 27.8532 31.5477C28.3504 31.7286 28.6513 32.1428 28.691 32.701C28.7468 33.4872 28.1825 34.1062 27.4111 34.1049C27.225 34.1046 25.2389 33.612 22.9974 33.0101C20.7558 32.4084 18.8568 31.916 18.7773 31.916C18.6977 31.916 18.5328 31.9946 18.4108 32.0906C18.1309 32.3107 18.1002 32.8201 18.353 33.0489C18.5375 33.2159 18.5749 33.2267 23.4486 34.5288C26.7279 35.4048 27.0246 35.4699 27.5748 35.4337C28.9021 35.3467 29.9088 34.3633 30.0545 33.0112L30.1044 32.5487L33.5569 30.5539C35.4558 29.4567 37.0852 28.5416 37.1778 28.5203C37.4406 28.4597 37.9109 28.5461 38.1881 28.706ZM5.38931 33.2634V37.3053H3.36832H1.34733V33.2634V29.2214H3.36832H5.38931V33.2634Z" fill="white"></path></svg>