<svg width="95" height="95" viewBox="0 0 95 95" fill="none" xmlns="http://www.w3.org/2000/svg">
<path fill-rule="evenodd" clip-rule="evenodd" d="M43.9045 0.0552549C43.547 0.0968504 42.4607 0.221451 41.4904 0.332311C26.7968 2.01024 13.2209 11.2203 5.77082 24.5652C3.05003 29.4386 1.0774 35.4939 0.240103 41.5423C-0.0800343 43.855 -0.0800343 51.1141 0.240103 53.4268C2.19788 67.5683 9.74487 79.5883 21.5283 87.3314C32.8408 94.7651 47.1064 96.9322 60.3384 93.2274C77.5888 88.3975 90.9022 73.8591 94.1242 56.3327C97.0101 40.6358 92.2082 25.0876 81.0188 13.8984C73.6245 6.50386 64.6953 2.02733 54.1176 0.411788C52.2665 0.128976 45.349 -0.112427 43.9045 0.0552549ZM51.3322 5.71392C67.8423 7.22138 82.0867 18.5694 87.2552 34.3326C91.5783 47.5171 89.222 61.7034 80.8617 72.8265C73.9255 82.0547 62.8781 88.201 51.3322 89.2552C37.6285 90.5064 24.0836 84.9386 15.2845 74.437C9.90066 68.0116 6.41852 59.6691 5.66201 51.3841C3.4268 26.9042 22.4636 5.82515 47.0613 5.54345C48.2358 5.5299 50.1577 5.60659 51.3322 5.71392ZM21.8896 29.5938C21.2824 30.8865 20.7621 32.0012 20.7335 32.0714C20.7047 32.1414 23.0863 33.335 26.0258 34.724C28.9652 36.113 32.5253 37.7969 33.9369 38.4661L36.504 39.683L37.6781 37.2238C38.324 35.8712 38.7975 34.7053 38.7306 34.6328C38.5849 34.4752 23.3111 27.2439 23.124 27.2439C23.0525 27.2439 22.4971 28.3014 21.8896 29.5938ZM63.8666 30.8735C59.6792 32.8587 56.182 34.5075 56.0951 34.5372C55.8713 34.6139 58.2126 39.4997 58.4733 39.4997C58.6439 39.4997 73.9643 32.3421 74.1139 32.1924C74.2257 32.0808 71.8333 27.2454 71.6706 27.2539C71.5657 27.2593 68.054 28.8882 63.8666 30.8735ZM28.5847 42.2613C26.1021 42.9102 24.4121 45.0152 24.4084 47.463C24.4073 48.115 24.5009 48.9636 24.6164 49.3486C24.9412 50.4328 26.0546 51.7462 27.192 52.3871C28.1117 52.9053 28.3702 52.9625 29.7917 52.9625C31.2132 52.9625 31.4717 52.9053 32.3914 52.3871C33.5288 51.7462 34.6422 50.4328 34.967 49.3486C35.3269 48.148 35.2266 46.3917 34.739 45.3491C34.2406 44.2834 32.9244 42.9922 31.9004 42.5644C31.0622 42.2142 29.3601 42.0586 28.5847 42.2613ZM63.8666 42.2699C62.2113 42.7276 60.8147 43.8774 60.1263 45.3491C59.6387 46.3917 59.5384 48.148 59.8983 49.3486C60.2231 50.4328 61.3365 51.7462 62.4739 52.3871C63.3936 52.9053 63.6521 52.9625 65.0736 52.9625C66.4951 52.9625 66.7536 52.9053 67.6733 52.3871C68.8107 51.7462 69.9241 50.4328 70.2489 49.3486C71.0442 46.6944 69.8005 43.8069 67.3697 42.6643C66.45 42.2318 64.7115 42.0361 63.8666 42.2699ZM44.7401 62.7921C41.4201 63.4522 38.7843 64.8733 36.4087 67.2842C35.7311 67.9718 35.1787 68.624 35.1807 68.7334C35.1829 68.8427 36.145 69.6303 37.3186 70.4834L39.4524 72.0345L40.6485 70.9155C44.5988 67.2203 50.2636 67.2176 54.2096 70.9088L55.4129 72.0345L57.5467 70.4834C58.7203 69.6303 59.6823 68.8446 59.6846 68.7375C59.6911 68.4157 57.1105 65.9188 56.0309 65.2022C54.6877 64.3107 52.6267 63.3835 51.1465 63.0051C49.4662 62.5752 46.3514 62.4718 44.7401 62.7921Z" fill="#247B7B"/>
</svg>
