<svg width="84" height="106" viewBox="0 0 84 106" fill="none" xmlns="http://www.w3.org/2000/svg">
<path fill-rule="evenodd" clip-rule="evenodd" d="M31.1078 0.144102C29.206 0.735576 28.1954 1.73875 27.1265 4.0958C25.5542 7.5636 23.4496 8.48295 19.0587 7.61949C15.9207 7.0024 12.8189 7.98695 10.6386 10.2921C9.22676 11.785 8.58056 13.0324 8.15023 15.0963C7.17663 19.7661 9.92209 24.3479 14.5589 25.791C15.3595 26.0402 16.5072 26.2442 17.1092 26.2442C18.5504 26.2442 20.7426 25.6604 21.9437 24.9564L22.9077 24.3915L24.5052 24.935C25.9778 25.4359 28.5477 26.6172 28.5477 26.793C28.5477 26.8345 28.3381 27.6877 28.082 28.6892C27.5713 30.6863 27.494 32.2243 27.843 33.442C28.058 34.1913 28.0165 34.2831 27.0557 35.1868C26.498 35.7117 25.6667 36.7314 25.2087 37.4533C23.1944 40.6272 20.5097 41.6921 16.7881 40.7935C10.8351 39.356 5.0932 43.1046 4.08746 49.0846C3.38048 53.2889 5.79947 57.704 9.84827 59.6C12.6957 60.9331 16.677 60.7492 19.4222 59.1578L20.4263 58.5756L22.0997 59.0837C23.02 59.3634 24.5408 59.9565 25.4792 60.4017C26.8501 61.0524 27.1524 61.288 27.0154 61.6001C26.3255 63.1735 25.9575 65.3701 26.0677 67.2572L26.1851 69.2655L25.3628 70.0516C24.9106 70.4838 24.0376 71.5776 23.4231 72.4818C20.9184 76.1671 18.1724 77.3682 14.4587 76.4025C12.2405 75.8257 9.30989 75.8755 7.49239 76.521C3.58005 77.9103 1.0742 80.8427 0.219824 85.0322C-0.259409 87.382 0.0372598 89.4668 1.18528 91.819C3.97522 97.5349 10.7124 99.6022 16.4984 96.5184L17.8767 95.7837L19.4281 96.1922C20.2815 96.4167 22.0396 97.1041 23.3353 97.7198L25.6909 98.8391L25.092 100.557C24.5916 101.992 24.4924 102.694 24.4877 104.836C24.4812 107.878 24.8843 109.121 26.6254 111.423C28.8995 114.429 33.3146 117.133 37.984 118.38C39.9932 118.916 40.7637 119 43.6838 119C46.6039 119 47.3745 118.916 49.3836 118.38C54.053 117.133 58.4681 114.429 60.7423 111.423C62.4834 109.121 62.8865 107.878 62.8799 104.836C62.8753 102.7 62.7756 101.991 62.2801 100.57L61.6861 98.8666L63.4549 97.981C64.4278 97.4937 66.137 96.7993 67.2531 96.4374L69.2825 95.7795L70.9789 96.6179C75.6404 98.9213 80.6516 98.2318 84.0761 94.816C90.0023 88.9049 87.574 79.0401 79.5448 76.4083C77.8836 75.8637 74.8186 75.866 72.7918 76.4134C69.3126 77.3533 66.1158 75.9603 64.0752 72.6159C63.6349 71.894 62.8054 70.845 62.2319 70.2852L61.1893 69.2669L61.3021 67.1415C61.4092 65.1207 61.1104 63.3954 60.3392 61.5782C60.195 61.2382 60.4603 61.0314 61.8793 60.3778C62.8222 59.9435 64.347 59.3604 65.2675 59.0819L66.9413 58.5756L67.9454 59.1578C69.663 60.1535 71.4421 60.5387 73.8387 60.4339C75.6972 60.3526 76.1967 60.235 77.5892 59.5509C81.642 57.559 84.0014 53.2021 83.2781 49.045C82.5709 44.9811 79.6843 41.8451 75.6944 40.8058C73.9393 40.3487 72.4842 40.3543 70.4089 40.8263C66.7653 41.6551 64.1661 40.5844 62.1448 37.4216C61.6944 36.7172 60.8708 35.7126 60.3142 35.1891C59.3195 34.2533 59.3067 34.2218 59.5549 33.3262C59.8793 32.1554 59.6746 29.7171 59.112 28.0502L58.6709 26.7443L59.9545 26.1158C60.6605 25.7703 61.9564 25.2431 62.8345 24.9445L64.4308 24.4015L65.1764 24.8609C66.3121 25.5607 68.7414 26.2444 70.0801 26.2414C75.9625 26.2279 80.4078 20.8056 79.2174 15.0963C78.7871 13.0324 78.1409 11.785 76.729 10.2921C74.5487 7.98695 71.447 7.0024 68.3089 7.61949C63.918 8.48295 61.8134 7.5636 60.2411 4.0958C59.3809 2.19889 58.5831 1.22831 57.3352 0.560695C56.3828 0.0511896 56.2743 0.0467652 44.0331 0.00484971C37.2451 -0.0184366 31.4287 0.0444365 31.1078 0.144102ZM55.7408 4.25182C56.0256 4.45115 56.2585 4.72639 56.2585 4.86355C56.2585 5.60126 57.8485 8.19559 58.9241 9.21274C61.531 11.6785 64.608 12.5182 68.0181 11.6948C69.9811 11.221 70.8721 11.2636 72.2096 11.8958C74.3634 12.9141 75.3533 14.5006 75.3533 16.9338C75.3533 18.5571 74.9805 19.4469 73.7712 20.7092C72.1016 22.452 69.6966 22.6986 67.1889 21.3838C65.1846 20.3334 64.4106 20.2768 62.0801 21.0105C59.4662 21.8335 56.3567 23.382 55.663 24.2066C54.6678 25.3893 54.5222 26.5173 55.1188 28.4221C55.7855 30.5503 55.827 32.5773 55.2283 33.7833C54.9819 34.2798 54.2735 35.1929 53.6539 35.8123C51.9642 37.5022 51.7884 38.2902 52.8407 39.4592C53.6462 40.3538 54.7677 40.1738 56.2014 38.9196C56.87 38.3349 57.5141 37.9162 57.6326 37.9896C57.7511 38.0627 58.3184 38.8367 58.8936 39.7095C61.771 44.0773 66.2194 45.9267 71.0453 44.7615C72.8544 44.3246 73.6005 44.3269 75.1069 44.7743C76.6948 45.2461 78.4327 46.8305 79.0062 48.3296C80.5615 52.3952 77.6055 56.5164 73.1343 56.5164C71.7376 56.5164 70.7205 56.2076 69.4153 55.3875C67.9121 54.4428 66.5699 54.4565 63.6111 55.4466C59.8471 56.7062 57.5408 57.9786 56.8329 59.1867C56.1136 60.4139 56.0922 61.6823 56.7628 63.3191C57.1275 64.2088 57.2728 65.0714 57.2868 66.4297C57.3045 68.1305 57.2421 68.4071 56.629 69.3404C56.2564 69.9077 55.4441 70.8664 54.8243 71.4707C53.5377 72.7249 53.3293 73.7316 54.1692 74.633C55.2406 75.7831 56.6695 75.4536 58.2639 73.6887C59.2445 72.6033 59.3495 72.655 60.8196 74.9459C63.7583 79.5257 68.5173 81.5602 73.4904 80.363C75.9625 79.7678 77.7196 79.8757 79.4521 80.7286C81.9815 81.9738 83.307 84.0765 83.3454 86.9051C83.3834 89.6969 81.9089 92.0968 79.3953 93.334C78.4711 93.789 77.902 93.891 76.2847 93.8908C74.4009 93.8903 74.2164 93.8426 72.4618 92.9011C71.0604 92.149 70.3621 91.9117 69.5503 91.9117C67.5859 91.9117 63.0113 93.5082 60.1811 95.1815C57.6515 96.677 57.1031 98.4267 58.2807 101.244C58.7862 102.453 58.9085 103.119 58.9196 104.719C58.9313 106.429 58.8486 106.859 58.3128 107.877C57.3688 109.67 55.0154 111.727 52.4793 112.976C49.2891 114.546 47.2092 115.032 43.6838 115.032C40.1562 115.032 38.0786 114.546 34.8797 112.971C32.05 111.578 29.8208 109.53 28.8995 107.477C28.3281 106.204 28.268 105.847 28.3789 104.379C28.4536 103.392 28.7486 102.119 29.1082 101.235C29.8371 99.4411 29.8676 98.4347 29.2332 97.1241C28.4909 95.5907 25.8488 94.1074 21.219 92.6242C18.1468 91.6402 17.1933 91.6779 14.9245 92.8732C11.6523 94.5971 8.77011 94.353 6.35695 92.1478C2.0159 88.1803 3.97755 81.1655 9.75257 80.0056C10.7888 79.7977 11.3845 79.8372 13.3538 80.2452C14.6516 80.5142 16.1647 80.7326 16.7164 80.7307C18.1391 80.7258 20.434 80.143 21.8447 79.4281C23.3963 78.6419 25.5586 76.5751 26.5681 74.9129C27.0043 74.1952 27.5555 73.4319 27.7932 73.2167C28.2035 72.8455 28.2883 72.8846 29.464 73.9886C30.8735 75.3118 31.5183 75.5546 32.5199 75.1399C33.3521 74.7953 33.6707 74.2795 33.6707 73.2768C33.6707 72.7035 33.4234 72.3032 32.5469 71.4569C29.9099 68.911 29.3881 66.9378 30.5 63.7177C31.2654 61.5013 31.2736 60.4472 30.5347 59.1867C29.8268 57.9786 27.5205 56.7062 23.7565 55.4466C20.7936 54.4551 19.4534 54.4423 17.9524 55.3908C16.4902 56.3145 15.3834 56.5867 13.6069 56.4596C10.8363 56.2614 8.60268 54.3771 8.06407 51.7835C7.62559 49.6709 8.23755 47.7607 9.84129 46.2378C11.6371 44.5321 13.5308 44.0899 16.2786 44.7342C21.2639 45.9032 25.5598 44.1332 28.4741 39.7095C29.0493 38.8367 29.6165 38.0627 29.7351 37.9896C29.8536 37.9162 30.5107 38.3349 31.1953 38.9196C32.6566 40.168 33.7275 40.341 34.5348 39.4592C35.6153 38.2785 35.4451 37.5087 33.7359 35.8467C32.5998 34.7418 31.5807 32.7886 31.5772 31.709C31.5758 31.3206 31.7365 30.4299 31.9338 29.7297C32.7141 26.9616 32.7527 26.6936 32.505 25.7733C32.3708 25.2754 32.002 24.5601 31.6851 24.1833C30.9834 23.3497 27.9681 21.8542 25.2876 21.0103C22.9659 20.2796 22.0548 20.3406 20.291 21.3454C19.6451 21.7133 18.7229 22.0871 18.2418 22.176C15.9956 22.5915 13.7101 21.4958 12.6112 19.4767C12.0388 18.4253 11.975 18.0974 12.0507 16.5992C12.1464 14.7032 12.7586 13.4928 14.1635 12.4211C15.5106 11.3935 16.8363 11.1828 19.0573 11.6431C21.3576 12.12 22.4546 12.1375 24.0068 11.723C26.7975 10.9774 29.1555 9.07046 30.3724 6.5744C30.7776 5.74331 31.1092 4.96228 31.1092 4.83886C31.1092 4.71521 31.3421 4.45115 31.6268 4.25182C32.0781 3.93559 33.6164 3.88925 43.6838 3.88925C53.7512 3.88925 55.2895 3.93559 55.7408 4.25182ZM36.483 8.45081L35.7665 9.0537V11.6036C35.7665 18.3266 37.4168 25.6145 40.3597 31.8895L41.4239 34.158L40.3672 36.4345C38.4614 40.5406 37.1406 44.8334 36.3021 49.6469C35.7832 52.6246 35.7117 63.6847 36.1912 66.7624C36.9359 71.5412 38.3908 76.3785 40.312 80.4627L41.4241 82.8272L40.4426 84.9393C37.4685 91.3407 35.7665 98.7602 35.7665 105.324C35.7665 107.855 35.7974 108.031 36.3381 108.572C36.9005 109.135 37.8566 109.31 38.6668 108.999C39.4227 108.709 39.7251 107.626 39.7251 105.208C39.7251 100.501 40.8615 94.6243 42.6678 89.9889C43.1541 88.7412 43.6114 87.7201 43.6838 87.7201C43.7562 87.7201 44.2136 88.7412 44.6998 89.9889C46.5061 94.6243 47.6425 100.501 47.6425 105.208C47.6425 107.626 47.945 108.709 48.7009 108.999C49.511 109.31 50.4672 109.135 51.0295 108.572C51.5702 108.031 51.6012 107.855 51.6012 105.324C51.6012 98.7607 49.8992 91.3405 46.9255 84.9404L45.9445 82.8293L47.1148 80.3262C49.2218 75.8203 50.7857 70.1848 51.3632 65.0159C51.7188 61.8346 51.6545 54.3897 51.2444 51.2306C50.5717 46.0492 49.1345 41.0326 47.0142 36.4645L45.9438 34.158L47.008 31.8895C49.9371 25.6441 51.6012 18.3231 51.6012 11.6813C51.6012 9.25955 51.5875 9.19551 50.9205 8.52859C50.0373 7.64534 49.2064 7.64534 48.3232 8.52859C47.6572 9.19481 47.6425 9.26188 47.6425 11.6604C47.6425 16.3309 46.6063 21.9439 44.8642 26.7099C44.4665 27.7985 44.038 28.8464 43.9123 29.0385C43.6012 29.5143 43.4174 29.2111 42.5034 26.7099C40.7614 21.9439 39.7251 16.3309 39.7251 11.6604C39.7251 9.26188 39.7105 9.19481 39.0445 8.52859C38.2004 7.68446 37.4219 7.66071 36.483 8.45081ZM44.7115 41.2888C46.7586 46.6372 47.6425 51.8261 47.6425 58.4958C47.6425 63.2438 47.2359 67.0432 46.3592 70.4882C45.4857 73.9213 44.0382 77.9399 43.6754 77.9399C43.4398 77.9399 42.2988 74.9997 41.5068 72.3511C40.1832 67.9244 39.7298 64.3826 39.727 58.4494C39.7249 53.5986 40.1187 50.0826 41.0953 46.2367C41.7981 43.4691 43.3895 39.0517 43.6838 39.0517C43.7781 39.0517 44.2404 40.0583 44.7115 41.2888Z" fill="#EBF1F5"/>
</svg>
