<svg width="35" height="29" viewBox="0 0 35 29" fill="none" xmlns="http://www.w3.org/2000/svg">
<path fill-rule="evenodd" clip-rule="evenodd" d="M9.19434 0.0886707C4.57762 0.814442 1.22233 4.91826 1.45571 9.55378C1.51437 10.7199 1.7956 11.8917 2.28149 12.9946L2.39442 13.2509H1.60467C0.948008 13.2509 0.769385 13.2741 0.545098 13.3885C0.241787 13.5433 0 13.9371 0 14.2763C0 14.6155 0.241787 15.0093 0.545098 15.1641C0.790986 15.2895 0.946436 15.3017 2.30357 15.3017H3.7923L10.3898 21.8937C17.5632 29.0612 17.1069 28.6499 17.7563 28.5322C17.9842 28.4909 18.7461 27.753 24.6102 21.8937L31.2077 15.3017H32.6964C34.0536 15.3017 34.209 15.2895 34.4549 15.1641C34.7582 15.0093 35 14.6155 35 14.2763C35 13.9371 34.7582 13.5433 34.4549 13.3885C34.2306 13.2741 34.052 13.2509 33.3953 13.2509H32.6056L32.7185 12.9946C34.3593 9.27016 33.5366 5.14139 30.6113 2.4187C29.2543 1.15576 27.6199 0.372089 25.7373 0.0816979C24.9002 -0.0473646 23.3946 -0.0109292 22.5928 0.157918C20.8885 0.516737 19.3872 1.30171 18.1154 2.49889L17.5 3.07823L16.8703 2.48549C15.4754 1.17237 13.8403 0.373798 11.9629 0.0886707C11.1845 -0.0295911 9.94656 -0.0295227 9.19434 0.0886707ZM11.9434 2.17021C13.0249 2.38083 13.9537 2.78449 14.8215 3.42119C15.0352 3.57801 15.5945 4.081 16.0645 4.53894C16.5344 4.99687 16.9861 5.40642 17.0682 5.44894C17.2609 5.54874 17.7401 5.54847 17.9318 5.44839C18.0139 5.40553 18.481 4.98252 18.9698 4.50845C20.3208 3.19807 21.208 2.65044 22.6076 2.26298C23.2049 2.09762 23.3932 2.07772 24.3701 2.07677C25.2793 2.07581 25.5654 2.10144 26.0659 2.22839C27.8368 2.67758 29.3229 3.72115 30.315 5.21221C31.8778 7.56097 31.902 10.5757 30.3773 12.991L30.2131 13.2509H27.5226H24.832L23.6188 11.3341C22.5733 9.68209 22.3695 9.39888 22.1431 9.28335C21.801 9.10883 21.4937 9.11539 21.1652 9.30427C20.9276 9.44092 20.7203 9.77 19.1961 12.4306C18.2592 14.0661 17.4712 15.4255 17.445 15.4515C17.4189 15.4774 16.3977 13.5245 15.1758 11.1117C13.0439 6.90191 12.943 6.71851 12.6807 6.57099C12.1894 6.29475 11.5896 6.43229 11.3257 6.88161C11.2573 6.99823 10.6228 8.47131 9.91587 10.1551L8.63044 13.2167L6.71323 13.2349L4.79596 13.253L4.66238 13.064C4.5889 12.96 4.40556 12.6289 4.25489 12.3281C2.56211 8.94743 3.78369 4.88818 7.0741 2.95983C8.43377 2.16304 10.3284 1.85576 11.9434 2.17021ZM16.1247 17.522C16.5172 18.2916 16.6134 18.4296 16.8506 18.5633C17.1971 18.7586 17.5301 18.7591 17.868 18.5648C18.1058 18.428 18.3172 18.0915 19.8948 15.3381C20.8636 13.6475 21.6824 12.2569 21.7144 12.2479C21.7463 12.2389 22.1679 12.8618 22.6513 13.6322C23.3957 14.8187 23.5704 15.0534 23.7936 15.1673C24.0386 15.2923 24.2039 15.3017 26.1617 15.3017H28.2665L22.8832 20.6849L17.5 26.0682L12.1168 20.6849L6.73354 15.3017H8.12048C9.37556 15.3017 9.53306 15.2887 9.77717 15.1641C10.1102 14.9942 10.0939 15.0258 11.2004 12.39C11.6897 11.2242 12.1284 10.1864 12.1751 10.0838C12.2566 9.90508 12.3311 10.0374 13.9662 13.266C14.9046 15.1188 15.8759 17.0339 16.1247 17.522Z" fill="#E63946"/>
</svg>
