<svg xmlns="http://www.w3.org/2000/svg" width="92" height="95" viewBox="0 0 92 95" fill="none"><path fill-rule="evenodd" clip-rule="evenodd" d="M71.386 16.6158C70.9401 17.5047 69.8706 18.6075 69.0086 19.0674C68.1466 19.5267 67.4417 20.1339 67.4417 20.4167C67.4417 20.6994 68.1466 21.3066 69.0086 21.766C69.8706 22.2258 70.9401 23.3287 71.386 24.2175C71.8315 25.1064 72.4203 25.8333 72.6945 25.8333C72.9687 25.8333 73.5576 25.1064 74.003 24.2175C74.449 23.3287 75.5184 22.2258 76.3804 21.766C77.2424 21.3066 77.9474 20.6994 77.9474 20.4167C77.9474 20.1339 77.2424 19.5267 76.3804 19.0674C75.5184 18.6075 74.449 17.5047 74.003 16.6158C73.5576 15.7269 72.9687 15 72.6945 15C72.4203 15 71.8315 15.7269 71.386 16.6158ZM45.3797 19.3333C45.3797 20.0554 45.7301 20.4167 46.4303 20.4167C47.1305 20.4167 47.4809 20.0554 47.4809 19.3333C47.4809 18.6113 47.1305 18.25 46.4303 18.25C45.7301 18.25 45.3797 18.6113 45.3797 19.3333ZM36.7073 20.0586C27.8158 23.469 21.4551 30.7544 19.1076 40.2184C17.8642 45.2331 17.7975 49.2404 18.8786 53.9713C20.5579 61.3174 24.7765 67.7253 30.5231 71.6583C35.8463 75.3021 43.6037 77.5338 43.1856 75.301C43.0732 74.7009 42.1014 74.182 40.3097 73.766C28.9525 71.1286 20.166 59.6713 20.166 47.5C20.166 35.3288 28.9525 23.8714 40.3097 21.234C42.1014 20.818 43.0732 20.2991 43.1856 19.699C43.4299 18.3952 40.6411 18.5501 36.7073 20.0586ZM49.675 19.699C49.7874 20.2991 50.7592 20.818 52.5509 21.234C56.1344 22.0666 60.3892 24.2555 63.138 26.6821C64.9844 28.3115 65.5039 28.5346 66.1558 27.9767C66.8518 27.3809 66.8397 27.1853 66.0533 26.2894C62.2429 21.9474 49.1061 16.6613 49.675 19.699ZM73.5108 19.9221C74.0519 20.8256 72.8348 21.8613 72.1099 21.1138C71.5037 20.4887 71.883 19.3333 72.6945 19.3333C72.9493 19.3333 73.3165 19.5982 73.5108 19.9221ZM41.9654 27.4226C36.2251 28.8623 31.0699 33.1935 28.4419 38.7851C26.9349 41.9913 26.7647 42.8498 26.7673 47.2292C26.771 53.9133 28.1425 57.445 32.464 61.9018C40.6532 70.3459 53.3157 70.0355 61.1482 61.1982C64.6923 57.1991 66.078 53.3489 66.078 47.5C66.078 43.9954 65.7949 42.1581 64.893 39.8073C63.5026 36.1835 59.8608 31.7933 56.6198 29.8346C52.4401 27.3088 46.3898 26.3133 41.9654 27.4226ZM53.9608 30.912C57.6561 32.7764 60.7196 35.9506 62.5665 39.8278C63.8162 42.4528 64.0273 43.561 64.0273 47.5C64.0273 51.4076 63.8125 52.5554 62.6064 55.0871C60.7769 58.9292 57.5295 62.2864 53.831 64.159C51.3286 65.4265 50.236 65.6458 46.4303 65.6458C42.6104 65.6458 41.5357 65.4281 38.9901 64.1395C28.8522 59.0055 25.5155 46.2823 31.8846 37.0448C36.9673 29.6727 46.3426 27.0683 53.9608 30.912ZM40.4935 34.8445C40.2918 35.052 40.1269 36.5101 40.1269 38.0842V40.9458L37.1065 41.1083L34.0861 41.2708V47.5V53.7292L37.0813 53.8906L40.0759 54.0525L40.233 57.1406L40.3895 60.2292H46.4303H52.4711L52.6276 57.1406L52.7847 54.0525L55.7793 53.8906L58.7745 53.7292V47.5V41.2708L55.7793 41.1094L52.7847 40.9475L52.6276 37.8594L52.4711 34.7708L46.6656 34.6186C43.4724 34.5352 40.6947 34.6365 40.4935 34.8445ZM50.7376 39.7813L50.8952 42.8958L53.9156 43.0583L56.936 43.2208V47.5V51.7792L53.9156 51.9417L50.8952 52.1042L50.7376 55.2188L50.58 58.3333H46.4303H42.2805L42.1229 55.2188L41.9654 52.1042L38.945 51.9417L35.9246 51.7792V47.5V43.2208L38.945 43.0583L41.9654 42.8958L42.1229 39.7813L42.2805 36.6667H46.4303H50.58L50.7376 39.7813ZM72.0174 42.996C69.1289 47.7389 69.0464 48.5833 71.4722 48.5833C72.7665 48.5833 72.8012 48.6705 72.4566 51.0414C70.8455 62.1169 62.7078 71.4075 52.5509 73.766C50.7592 74.182 49.7874 74.7009 49.675 75.301C49.2752 77.4358 56.9901 75.2745 62.0906 71.823C68.3121 67.6132 72.5438 61.0075 74.1496 53.0001C74.9359 49.0779 75.1655 48.5833 76.1976 48.5833C76.8369 48.5833 77.5124 48.3288 77.6989 48.0178C78.0923 47.3613 74.8377 41.4658 73.9048 41.1452C73.5591 41.0265 72.7098 41.8591 72.0174 42.996ZM74.6754 45.7737C74.7915 46.1328 74.4001 46.4167 73.7887 46.4167C72.6977 46.4167 72.3704 45.8479 73.0559 45.1416C73.5423 44.6395 74.4196 44.9818 74.6754 45.7737ZM18.8576 70.7825C18.4116 71.6713 17.3421 72.7742 16.4801 73.234C14.5066 74.2865 14.5066 74.8802 16.4801 75.9326C17.3421 76.3925 18.4116 77.4953 18.8576 78.3842C19.303 79.2731 19.8918 80 20.166 80C20.4402 80 21.0291 79.2731 21.4745 78.3842C21.9205 77.4953 22.99 76.3925 23.852 75.9326C24.714 75.4733 25.4189 74.8661 25.4189 74.5833C25.4189 74.3006 24.714 73.6934 23.852 73.234C22.99 72.7742 21.9205 71.6713 21.4745 70.7825C21.0291 69.8936 20.4402 69.1667 20.166 69.1667C19.8918 69.1667 19.303 69.8936 18.8576 70.7825ZM20.9823 74.0888C21.5234 74.9923 20.3063 76.028 19.5814 75.2805C18.9752 74.6554 19.3545 73.5 20.166 73.5C20.4208 73.5 20.788 73.7649 20.9823 74.0888ZM45.3797 75.6667C45.3797 76.3887 45.7301 76.75 46.4303 76.75C47.1305 76.75 47.4809 76.3887 47.4809 75.6667C47.4809 74.9446 47.1305 74.5833 46.4303 74.5833C45.7301 74.5833 45.3797 74.9446 45.3797 75.6667Z" fill="#DA8566"></path></svg>