<svg width="36" height="40" viewBox="0 0 36 40" fill="none" xmlns="http://www.w3.org/2000/svg">
<path fill-rule="evenodd" clip-rule="evenodd" d="M11.8316 0.0489507C10.9712 0.10851 9.43638 0.41584 8.55472 0.705116C4.0169 2.19401 1.2539 5.82141 0.305877 11.5348C0.0528684 13.0593 -0.0309207 14.4117 0.00980143 16.3139C0.0413786 17.7924 0.0816316 18.2646 0.251007 19.1474C0.662918 21.2942 1.23631 22.9388 2.34784 25.1617C3.6651 27.7959 5.31727 30.1525 8.15219 33.4408C8.80359 34.1964 9.72878 35.2935 10.2081 35.8788C11.2322 37.1294 11.8632 37.7243 12.9096 38.4256C14.5924 39.5534 16.5148 40.0963 18.4362 39.986C21.2031 39.8273 23.2208 38.3833 23.7863 36.1569C23.9639 35.4583 24.0129 34.6169 23.8895 34.3847C23.7588 34.1387 23.4062 33.9655 23.1614 34.0269C22.8121 34.1146 22.6818 34.3481 22.6235 34.991C22.4215 37.2203 20.9199 38.4985 18.319 38.6548C15.8122 38.8056 13.3448 37.5981 11.4629 35.2997C11.1068 34.8647 10.1967 33.7862 9.44029 32.9031C5.79031 28.641 3.96328 25.8787 2.67714 22.6779C2.00706 21.0103 1.57803 19.3614 1.39216 17.7393C1.27226 16.6925 1.34073 13.6486 1.51191 12.4214C2.32862 6.56464 5.04004 2.97993 9.54823 1.79633C10.9157 1.43733 11.5343 1.36613 13.2775 1.36714C14.6223 1.36792 15.0218 1.3963 15.7632 1.54379C19.1103 2.20964 21.3739 4.13343 22.8218 7.54275C23.4743 9.07933 23.7738 10.4024 23.9248 12.4164C24.0067 13.5071 24.0341 13.6493 24.1927 13.8079C24.5404 14.1557 25.1605 13.9617 25.2849 13.4662C25.3587 13.1721 25.1824 11.1512 24.9979 10.1754C24.5904 8.02141 23.7645 6.03182 22.5883 4.37073C22.1056 3.68916 21.0273 2.5763 20.3957 2.10811C18.2016 0.481652 15.3802 -0.196789 11.8316 0.0489507ZM11.4798 3.39582C7.7334 3.98328 4.85886 6.79405 3.40513 11.2913C2.94523 12.7141 2.64759 14.4253 2.64759 15.647C2.64759 16.1919 2.66846 16.2792 2.83948 16.4502C2.96727 16.5781 3.11726 16.6412 3.28891 16.6396C3.78211 16.6348 3.97571 16.335 3.97774 15.5725C3.9797 14.8547 4.16142 13.6217 4.40982 12.6412C4.96891 10.434 5.96211 8.53212 7.28764 7.13022C8.39019 5.96413 9.51665 5.26849 10.9422 4.87331C11.5591 4.70229 11.892 4.66376 13.0431 4.62983C14.2258 4.59497 14.5166 4.61139 15.1925 4.75106C16.6293 5.048 17.6868 5.71995 18.3838 6.7788C19.2767 8.13545 19.5616 9.98194 19.0492 11.0926C18.4032 12.4929 16.5413 13.5719 13.182 14.4926C11.2448 15.0237 10.4255 15.4926 9.83915 16.4065C9.56261 16.8374 9.29131 17.6185 9.29131 17.9838C9.29131 18.2843 9.66649 18.6743 9.95568 18.6743C10.2682 18.6743 10.5864 18.3113 10.6509 17.8812C10.6806 17.6837 10.8051 17.3639 10.9278 17.1705C11.3359 16.5269 11.8901 16.2198 13.311 15.8501C17.6289 14.7267 19.9353 13.1594 20.5083 10.9595C20.8486 9.65319 20.4978 7.68454 19.6786 6.3028C18.7832 4.79272 17.3551 3.83329 15.4147 3.43811C14.4744 3.24661 12.5622 3.22606 11.4798 3.39582ZM32.7788 14.2208C31.4892 14.4747 30.3558 14.7016 30.2603 14.7252C29.981 14.7942 29.7698 15.0781 29.7684 15.3867C29.7672 15.6389 29.8457 15.7406 30.6012 16.4671C31.06 16.9082 31.421 17.2835 31.4034 17.301C31.3858 17.3186 30.6154 17.478 29.6912 17.6554C27.5612 18.0641 27.515 18.079 27.3789 18.4049C27.1936 18.8485 27.4896 19.2996 27.966 19.2994C28.331 19.2992 32.997 18.3968 33.2031 18.2865C33.405 18.1784 33.5214 17.9606 33.5214 17.6907C33.5214 17.526 33.3348 17.2892 32.688 16.6328C32.1435 16.0803 31.8929 15.7748 31.965 15.7516C32.0257 15.7321 32.8656 15.5666 33.8314 15.3841C35.7858 15.0144 35.9444 14.9426 35.9444 14.4267C35.9444 14.0723 35.7368 13.8312 35.3972 13.7914C35.2468 13.7738 34.0685 13.967 32.7788 14.2208ZM7.04871 18.048C6.95452 18.0869 6.81633 18.212 6.74161 18.3261C6.62062 18.5107 6.61639 18.5859 6.70323 19.0142C6.85377 19.7568 7.29343 21.0133 7.655 21.7344C8.14328 22.7081 8.59028 23.3618 9.2273 24.0336C10.7444 25.634 12.5739 26.4771 14.8906 26.6435C15.5073 26.6878 15.9311 26.758 16.1021 26.8442C16.5034 27.0464 16.9135 27.4716 17.4977 28.2912C18.5893 29.8227 19.3096 30.175 20.8592 29.9351C21.9156 29.7715 22.6472 29.3104 23.027 28.5687C23.3925 27.8549 23.3514 26.7297 22.9237 25.7412C22.9034 25.6946 23.0374 25.5891 23.2213 25.5067C23.7574 25.2668 24.5599 24.4211 24.8747 23.7643C26.2621 20.8693 23.9234 17.6146 20.7674 18.0484C20.0832 18.1425 19.1017 18.5982 18.6316 19.0402C18.3618 19.2939 18.2235 19.3537 17.6218 19.4769C16.6139 19.6833 15.5497 20.2049 14.8994 20.8112C14.614 21.0773 14.604 21.4929 14.8763 21.7652C15.1645 22.0534 15.4882 22.0193 15.9669 21.6502C16.3287 21.3712 17.3392 20.834 17.3958 20.8906C17.4087 20.9034 17.3872 21.1686 17.3481 21.4799C17.0771 23.6381 18.4811 25.5368 20.6523 25.9485C20.8638 25.9886 21.1544 26.0214 21.2982 26.0214C21.5269 26.0214 21.5806 26.0629 21.7291 26.3536C21.9654 26.8164 22.0107 27.6104 21.8216 27.9755C21.6003 28.4026 21.0576 28.6344 20.2714 28.6374C19.794 28.6393 19.5901 28.6058 19.4265 28.499C19.3079 28.4215 18.9101 27.9516 18.5425 27.4549C18.1749 26.9581 17.7186 26.4026 17.5284 26.2204C16.9142 25.6319 16.0337 25.318 14.9971 25.318C13.8137 25.318 12.3888 24.8428 11.2453 24.0669C10.7264 23.7148 9.82641 22.7809 9.4381 22.1914C8.85228 21.3023 8.40543 20.2663 8.07442 19.0295C7.9714 18.6446 7.82493 18.2687 7.74895 18.1942C7.57239 18.0212 7.26787 17.9576 7.04871 18.048ZM22.4796 19.621C22.9809 19.8636 23.4869 20.3893 23.7357 20.9256C23.9037 21.288 23.9426 21.4875 23.9444 21.9978C23.9463 22.55 23.9162 22.6864 23.6918 23.1422C22.6395 25.2797 19.6285 25.117 18.7893 22.8773C18.5962 22.3619 18.6515 21.3536 18.8999 20.8628C19.5681 19.5422 21.1695 18.9868 22.4796 19.621ZM4.32806 20.0933C3.88465 20.3358 3.88012 20.5652 4.29469 21.7725C4.92912 23.6199 6.06786 25.6095 7.4016 27.2004C8.48914 28.4978 10.2135 30.0077 10.6078 30.0077C11.0346 30.0077 11.3767 29.5822 11.275 29.1775C11.2464 29.0635 10.9485 28.7516 10.5521 28.4208C8.20034 26.4585 6.45069 23.9508 5.50932 21.1935C5.13211 20.0885 4.83783 19.8144 4.32806 20.0933ZM27.6756 22.7423C27.4617 22.8281 27.2783 23.2238 27.3291 23.4896C27.3994 23.8575 27.6571 23.9563 29.4366 24.297C30.372 24.4763 31.2034 24.6424 31.2841 24.6662C31.4042 24.7017 31.2805 24.8601 30.6001 25.5426C29.8939 26.2511 29.7696 26.4129 29.7696 26.6241C29.7696 26.7712 29.8413 26.9527 29.9455 27.0694C30.1044 27.2474 30.357 27.3116 32.5772 27.7381C33.9279 27.9977 35.1616 28.21 35.3188 28.21C35.6913 28.21 35.9444 27.9527 35.9444 27.5737C35.9444 27.0643 35.7862 26.994 33.7475 26.5978C32.7418 26.4024 31.9032 26.2267 31.8837 26.2074C31.8643 26.1881 32.2254 25.813 32.6861 25.3739C33.4114 24.6825 33.5235 24.542 33.5225 24.3258C33.5218 24.1789 33.4469 23.9896 33.3407 23.8661C33.1721 23.6702 32.9881 23.6229 30.5855 23.1591C29.1696 22.8858 27.9758 22.6639 27.9328 22.6663C27.8898 22.6686 27.7741 22.7028 27.6756 22.7423Z" fill="white"/>
</svg>
