<svg width="40" height="40" viewBox="0 0 40 40" fill="none" xmlns="http://www.w3.org/2000/svg">
<path fill-rule="evenodd" clip-rule="evenodd" d="M19.124 0.197345C18.6691 0.409167 18.2106 0.873839 18.0301 1.30599C17.8816 1.66125 17.8829 2.51404 18.0324 2.87188C18.2015 3.27676 18.6911 3.78588 19.08 3.96118L19.4165 4.11295V5.72646C19.4165 6.61386 19.4053 7.33997 19.3916 7.33997C19.378 7.33997 19.0496 7.22814 18.6619 7.09146C17.8092 6.79074 17.1334 6.76289 16.597 7.00631C16.3994 7.09605 15.9041 7.49033 15.4964 7.88262C14.6713 8.67637 14.4476 8.79771 13.6623 8.87818C12.8376 8.96258 12.2347 9.09442 11.9031 9.26279C11.611 9.41107 11.139 9.87916 11.054 10.1047C11.0274 10.1755 10.4064 9.61505 9.37349 8.58755L7.73521 6.95803L7.91842 6.54439C8.18704 5.93812 8.1777 5.11085 7.89532 4.49898C7.48452 3.60875 6.7017 3.07419 5.72599 3.01765C3.22959 2.87305 2.02362 5.84096 3.89515 7.52361C4.65112 8.20335 5.59239 8.34796 6.53792 7.92974L6.94179 7.75111L8.71751 9.5254C9.71373 10.5208 10.4933 11.3656 10.4933 11.4497C10.4933 11.5322 10.4164 11.7504 10.3225 11.9345C10.1922 12.19 9.96025 12.395 9.34263 12.8008C8.42246 13.4053 7.97363 13.832 7.78708 14.2799C7.65215 14.6038 7.63205 15.3492 7.73137 16.3465C7.80551 17.091 7.72645 17.39 7.24643 18.1803C7.01868 18.5552 6.79002 18.9903 6.73831 19.1471L6.64424 19.4321H5.37073H4.0973L3.94552 19.0956C3.77023 18.7068 3.26111 18.2172 2.85623 18.048C2.49838 17.8985 1.6456 17.8973 1.29034 18.0457C0.0265805 18.5738 -0.404151 20.1906 0.42829 21.282C1.37765 22.5266 3.28904 22.3061 3.97246 20.8731L4.10281 20.5997H5.37098H6.63907L6.78026 20.9541C6.8579 21.149 7.10525 21.6087 7.32983 21.9757C7.78891 22.7257 7.79784 22.7793 7.7006 24.2024C7.59127 25.8019 7.8126 26.2213 9.26015 27.1576C10.0509 27.6691 10.3489 27.983 10.4645 28.4264C10.5082 28.5939 10.3542 28.7844 9.40943 29.7311L8.30329 30.8395L8.02492 30.7232C7.6333 30.5596 6.85123 30.5793 6.44685 30.763C6.0569 30.9401 5.62592 31.347 5.43294 31.7201C5.35856 31.864 5.27966 32.2341 5.25757 32.5427C5.22262 33.0307 5.24664 33.1635 5.4422 33.5632C5.70272 34.0957 6.11628 34.4686 6.6465 34.6492C8.29837 35.2121 9.86901 33.6234 9.28259 31.983L9.16342 31.6494L10.0562 30.7529C10.5473 30.2598 10.9686 29.8572 10.9923 29.8582C11.0159 29.8592 11.1355 30.0017 11.2579 30.1748C11.582 30.6333 12.181 30.9275 13.0108 31.0356C14.5777 31.2398 14.5072 31.2098 15.403 32.0563C16.3056 32.9095 16.6658 33.1209 17.3095 33.1756C17.6976 33.2085 18.5057 33.0235 19.2925 32.7216C19.3996 32.6805 19.4165 32.8951 19.4165 34.3001V35.9261L19.2219 35.975C18.9185 36.0511 18.2413 36.6941 18.072 37.0667C17.7174 37.8474 17.9754 38.9722 18.6343 39.518C19.9806 40.6334 22.0641 39.6888 22.0814 37.9553C22.0894 37.1562 21.6147 36.3837 20.9243 36.0723L20.584 35.9188V34.2964C20.584 32.986 20.6052 32.6821 20.6942 32.7162C21.3135 32.9539 22.2531 33.192 22.569 33.1913C23.1785 33.1901 23.724 32.8822 24.607 32.0409C25.4738 31.2152 25.4129 31.241 26.9806 31.0369C27.8127 30.9287 28.2124 30.7355 28.6629 30.2236L29.0065 29.8333L29.42 30.2201C29.888 30.6578 30.0925 30.6964 30.3866 30.4022C30.7083 30.0806 30.6481 29.8972 30.0025 29.2315L29.4137 28.6242L29.5478 28.3033C29.7352 27.8549 29.945 27.651 30.7581 27.1271C32.2649 26.1563 32.4581 25.7405 32.2594 23.8959L32.1551 22.9278L32.4062 22.4518C32.5442 22.1899 32.8178 21.6661 33.0142 21.2877L33.3713 20.5997H34.6373H35.9032L36.0566 20.94C36.249 21.3665 36.8173 21.874 37.2467 22.0027C38.2356 22.299 39.232 21.9039 39.7099 21.0259C40.4934 19.5863 39.5178 17.9304 37.8883 17.9337C37.583 17.9343 37.2567 17.9943 37.0511 18.0877C36.6784 18.2569 36.0354 18.9342 35.9593 19.2376C35.9108 19.4308 35.9016 19.4321 34.6362 19.4321H33.3618L33.0613 18.8275C32.8959 18.4949 32.6232 17.9714 32.4553 17.6639L32.1499 17.1049L32.258 16.1071C32.4562 14.2771 32.2398 13.828 30.6747 12.8219C29.8681 12.3034 29.7444 12.1819 29.5541 11.7214L29.4176 11.3912L31.6605 9.14829L33.9034 6.90541L34.4165 7.09246C35.5882 7.51969 36.8437 7.00031 37.4031 5.85698C38.0357 4.5642 37.4044 3.01565 36.0363 2.50378C35.1078 2.15636 34.2456 2.35017 33.5085 3.07194C33.1293 3.4433 32.9963 3.64328 32.8922 3.99854C32.7193 4.58905 32.7283 5.02479 32.9252 5.5887L33.0853 6.04736L31.0252 8.11412C29.2503 9.89476 28.9536 10.1603 28.8817 10.0322C28.5682 9.47337 27.7495 9.00786 27.0798 9.00786C26.6063 9.00786 26.338 9.36087 26.4958 9.77609C26.573 9.97882 26.809 10.1094 27.2891 10.2151C27.6773 10.3005 27.951 10.6785 28.2475 11.5386C28.6904 12.8234 28.9624 13.1579 30.1573 13.8866C30.4461 14.0627 30.7981 14.3386 30.9396 14.4996L31.1967 14.7925L31.1241 15.5487C31.0189 16.6457 31.036 17.4311 31.1726 17.7642C31.2385 17.9248 31.5126 18.4126 31.7818 18.8484C32.4321 19.9011 32.4242 20.1176 31.6927 21.2987C31.037 22.3573 30.9542 22.7234 31.0905 23.9581C31.2472 25.3771 31.2034 25.4688 30.0075 26.2253C28.9288 26.9077 28.6884 27.2151 28.2259 28.5035C27.8053 29.6754 27.6833 29.7875 26.7135 29.8962C25.1136 30.0754 24.8167 30.202 23.8781 31.1055C22.7607 32.1812 22.7819 32.1758 21.44 31.719C20.2279 31.3063 19.7005 31.3069 18.5036 31.7223C17.205 32.173 17.2391 32.1818 16.1066 31.1027C15.2092 30.2475 14.8656 30.0873 13.6171 29.9416C12.2608 29.7834 12.1589 29.6955 11.6486 28.2437C11.3036 27.2622 11.0236 26.9149 10.0758 26.2931C9.64035 26.0075 9.17618 25.6545 9.04425 25.5086L8.80432 25.2435L8.87254 24.2768C8.99279 22.5718 8.92633 22.2715 8.17027 21.1064C7.97913 20.8118 7.77991 20.4278 7.72753 20.2531C7.64114 19.9645 7.65507 19.8913 7.8799 19.4544C8.016 19.1899 8.28569 18.7075 8.47925 18.3825C8.92399 17.6357 8.99513 17.2036 8.88238 15.9345C8.76337 14.5954 8.77313 14.5759 9.96125 13.7947C11.0786 13.0599 11.2897 12.7931 11.7447 11.5395C12.0729 10.6355 12.2376 10.3735 12.5537 10.2526C12.655 10.2139 13.1699 10.1256 13.6981 10.0563C14.9189 9.89617 15.2443 9.73289 16.2752 8.76235C17.2315 7.86211 17.2651 7.85535 18.5825 8.29901C19.7358 8.68738 20.2052 8.68738 21.4066 8.29901C22.7338 7.86995 22.7859 7.8782 23.5901 8.64651C24.1315 9.16381 24.309 9.28581 24.5195 9.28581C24.8277 9.28581 25.0873 9.0127 25.0873 8.68846C25.0873 8.40742 23.919 7.24032 23.4036 7.0064C22.7915 6.72861 21.8386 6.8321 20.7299 7.29669C20.5938 7.35365 20.584 7.24841 20.584 5.73814V4.11846L20.8575 3.98811C21.317 3.76895 21.6824 3.40619 21.8877 2.9652C22.6986 1.22368 20.8645 -0.613163 19.124 0.197345ZM20.6475 1.44467C20.784 1.58102 20.8669 1.7775 20.8956 2.03235C20.9353 2.38519 20.9157 2.43831 20.6446 2.70935C20.3972 2.95678 20.293 3.00314 19.9877 3.00164C19.429 2.99881 19.0829 2.63904 19.0829 2.06121C19.0829 1.74839 19.3317 1.36787 19.6156 1.24628C19.9079 1.1211 20.423 1.22009 20.6475 1.44467ZM35.7601 3.64995C36.1047 3.82307 36.3879 4.2182 36.4662 4.63525C36.5345 4.99968 36.259 5.61663 35.9172 5.86456C35.3675 6.26327 34.3969 6.03027 34.0792 5.42324C33.7459 4.78644 33.9895 3.98911 34.6114 3.68122C35.0465 3.4659 35.3759 3.45689 35.7601 3.64995ZM6.23511 4.3352C7.02344 4.73741 7.22242 5.80777 6.63349 6.47851C6.15847 7.01966 5.57104 7.14141 4.93108 6.8316C4.40736 6.57809 4.12282 6.06571 4.17252 5.46602C4.25809 4.43419 5.3046 3.86044 6.23511 4.3352ZM15.3206 11.7872C14.6187 12.0481 14.0591 12.7407 13.9472 13.487C13.8218 14.3229 14.3123 15.2396 15.0933 15.6287C16.2979 16.229 17.7715 15.5566 18.0813 14.2652C18.2171 13.6992 18.134 13.2148 17.8077 12.6709C17.4301 12.0412 16.9075 11.7302 16.174 11.6987C15.8571 11.6852 15.4937 11.7228 15.3206 11.7872ZM16.5516 13.0046C17.323 13.475 16.9544 14.6787 16.039 14.6787C15.6071 14.6787 15.2965 14.4564 15.163 14.0519C14.9678 13.4606 15.4148 12.8446 16.039 12.8446C16.1766 12.8446 16.4073 12.9166 16.5516 13.0046ZM25.3679 16.7709C24.8539 16.9199 24.3136 17.3653 24.0616 17.8476C23.8506 18.2518 23.8256 18.3767 23.8511 18.8982C23.8891 19.6759 24.1901 20.1913 24.8308 20.5754C25.3747 20.9016 25.8591 20.9848 26.4251 20.849C27.7148 20.5396 28.3889 19.0655 27.7901 17.8639C27.3406 16.9619 26.3114 16.4975 25.3679 16.7709ZM26.2882 17.9639C26.6599 18.1192 26.8386 18.3952 26.8386 18.814C26.8386 19.461 26.2435 19.885 25.6229 19.6801C24.866 19.4304 24.8041 18.2856 25.5305 17.9697C25.8686 17.8226 25.9487 17.822 26.2882 17.9639ZM2.51381 19.1917C2.82879 19.3527 2.98399 19.6197 2.98599 20.0034C2.98749 20.3086 2.94112 20.4128 2.69369 20.6603C2.42266 20.9313 2.36954 20.951 2.0167 20.9113C1.45746 20.8482 1.19485 20.5593 1.19485 20.0071C1.19485 19.636 1.22762 19.556 1.46722 19.3419C1.76135 19.079 2.1769 19.0194 2.51381 19.1917ZM38.4495 19.2625C38.7778 19.5208 38.8907 19.8758 38.7713 20.2744C38.5276 21.0878 37.4236 21.1576 37.056 20.3828C36.763 19.7654 37.1952 19.0986 37.8883 19.0986C38.1128 19.0986 38.3169 19.1582 38.4495 19.2625ZM15.2468 21.7333C14.6805 21.8838 13.9931 22.3443 13.6614 22.7953C13.2322 23.3789 13.0599 23.9657 13.0939 24.7277C13.1306 25.5521 13.3845 26.1463 13.9351 26.697C14.6793 27.4411 15.7176 27.7385 16.7152 27.4933C18.1099 27.1505 18.9956 26.0277 18.9956 24.6026C18.9956 23.2019 18.1345 22.0793 16.7921 21.7296C16.1896 21.5727 15.8478 21.5735 15.2468 21.7333ZM16.9372 23.0356C17.1271 23.1407 17.3968 23.3893 17.5364 23.5882C17.7663 23.9156 17.7903 24.0108 17.7903 24.595C17.7903 25.158 17.7613 25.284 17.5628 25.584C16.8489 26.6628 15.2309 26.6655 14.5186 25.589C14.2008 25.1088 14.1548 24.3433 14.4119 23.8122C14.8627 22.8811 16.0161 22.5265 16.9372 23.0356ZM31.2964 31.312C30.9753 31.633 31.035 31.8173 31.6737 32.4758L32.2556 33.076L32.0906 33.5102C31.6071 34.7827 32.1117 36.0855 33.3433 36.7447C33.7985 36.9883 35.0114 36.968 35.5116 36.7085C36.0606 36.4235 36.4688 35.9903 36.724 35.4216C36.9219 34.9806 36.9448 34.8425 36.9117 34.2852C36.853 33.296 36.4193 32.6166 35.5786 32.1964C34.9448 31.8797 34.1781 31.8466 33.4946 32.1063L33.0604 32.2713L32.4602 31.6893C31.8016 31.0507 31.6174 30.991 31.2964 31.312ZM7.8447 31.8719C8.05461 31.9795 8.24166 32.3864 8.24166 32.7358C8.24166 33.0826 7.90975 33.4803 7.54348 33.5722C7.01093 33.7059 6.40699 33.2614 6.40699 32.7358C6.40699 32.2206 6.64433 31.9081 7.15754 31.7475C7.30056 31.7028 7.63146 31.7626 7.8447 31.8719ZM35.0968 33.235C35.7084 33.5513 35.9639 34.5427 35.5795 35.1082C35.1509 35.739 34.4421 35.9504 33.7915 35.6417C33.2593 35.3892 32.9456 34.7446 33.0595 34.1373C33.1298 33.7627 33.6061 33.2194 33.9578 33.1125C34.2747 33.0162 34.7785 33.0704 35.0968 33.235ZM20.3874 37.0813C21.1433 37.4399 21.0598 38.5469 20.2588 38.7869C19.6378 38.973 19.0829 38.5597 19.0829 37.9113C19.0829 37.5 19.2591 37.2195 19.6148 37.0648C19.9553 36.9166 20.0444 36.9185 20.3874 37.0813Z" fill="white"/>
</svg>
