<svg width="35" height="40" viewBox="0 0 35 40" fill="none" xmlns="http://www.w3.org/2000/svg">
<path fill-rule="evenodd" clip-rule="evenodd" d="M13.4989 0.115534C11.2067 0.612802 8.56592 2.69509 6.62248 5.53759C5.10137 7.76248 4.75311 9.55011 5.5852 10.862C5.78703 11.1801 5.80101 11.2409 5.71186 11.411C5.34016 12.1204 5.21905 13.7364 5.46651 14.6847C5.53941 14.964 5.74538 15.491 5.92416 15.8558C6.34446 16.713 7.23695 17.6313 8.07404 18.0677C8.62585 18.3554 8.63765 18.368 8.76525 18.8067C9.09397 19.9377 9.76557 21.0408 10.6717 21.9381L11.2596 22.5204L11.2351 23.0528C11.2138 23.5132 11.2396 23.6387 11.4258 23.9808C11.835 24.7327 12.5542 25.0214 13.6092 24.8574C14.201 24.7653 14.5059 24.7999 14.5059 24.9592C14.5059 25.3153 14.3952 25.5279 14.1374 25.6666C13.8562 25.8181 13.3339 26.4267 13.3339 26.603C13.3339 26.6739 13.2031 26.6895 12.8455 26.6611C11.9237 26.5879 11.2177 26.958 10.8173 27.7245C10.3309 28.6556 10.6725 29.7528 11.6072 30.2615C12.1574 30.561 12.6972 30.6068 13.2927 30.4049C13.7065 30.2646 13.7884 30.2587 14.0148 30.3533L14.27 30.4599L14.2215 30.9526C14.1809 31.3648 14.1231 31.5109 13.8674 31.8473C13.6993 32.0685 13.4666 32.2875 13.3502 32.3341C13.2319 32.3813 12.7595 32.4108 12.279 32.4008C11.2854 32.3801 10.9169 32.4999 10.4072 33.0097C9.99099 33.4259 9.82128 33.8433 9.82018 34.4535C9.81901 35.0755 10.0523 35.6286 10.4705 35.9959C10.9227 36.3928 11.2137 36.5086 11.8561 36.5467C12.3386 36.5753 12.517 36.5517 12.8152 36.4198C13.1615 36.2666 13.202 36.2644 13.556 36.3787L13.9306 36.4997L13.9252 37.2152C13.919 38.0526 14.0401 38.3718 14.5538 38.8722C15.1857 39.4876 16.5002 40.0031 17.4291 40C18.8449 39.9951 20.3181 39.227 20.7998 38.2426C20.984 37.866 21.0045 37.7447 20.98 37.1736L20.9523 36.5294L21.3153 36.3945C21.6641 36.2648 21.6939 36.2655 22.078 36.4114C23.1885 36.8334 24.4644 36.3512 24.9115 35.3406C25.3793 34.2829 24.995 33.1939 23.9496 32.6148C23.5462 32.3913 23.494 32.3829 22.5249 32.3829H21.519L21.0989 31.9209C20.7077 31.4908 20.678 31.4303 20.6671 31.0419C20.6606 30.8125 20.6519 30.5844 20.6476 30.535C20.6433 30.4855 20.7748 30.3984 20.9398 30.3413C21.1973 30.2522 21.2728 30.2544 21.4715 30.3572C22.0878 30.6759 23.0469 30.5352 23.6238 30.0414C25.0707 28.8029 24.0498 26.5046 22.1213 26.6594L21.6107 26.7004L21.4619 26.4087C21.3009 26.093 20.8604 25.6673 20.6137 25.5891C20.5018 25.5535 20.451 25.4515 20.4258 25.211C20.4069 25.0299 20.3997 24.8707 20.4099 24.8571C20.4452 24.8103 20.956 24.8206 21.5817 24.8809C22.1387 24.9346 22.2554 24.9219 22.5965 24.771C23.1008 24.548 23.3162 24.3414 23.5405 23.8659C23.7406 23.4415 23.7762 22.9778 23.6389 22.584C23.5557 22.3453 23.5664 22.3211 23.8699 22.0614C24.6191 21.4201 25.4602 20.0618 25.8367 18.8855L26.0052 18.3589L26.5652 18.0666C27.2543 17.7069 28.1731 16.8114 28.5923 16.0906C29.3523 14.7839 29.5145 13.0693 29.0096 11.6783L28.8294 11.1819L29.0525 10.8496C29.6948 9.89322 29.6528 8.69099 28.9224 7.1316C28.2808 5.76184 27.309 4.43421 25.9551 3.07773C22.9296 0.0467728 19.7983 -0.815086 17.6901 0.802833L17.3189 1.08772L16.9477 0.802833C16.0129 0.0853728 14.775 -0.161308 13.4989 0.115534ZM15.3848 1.47904C15.7204 1.58273 16.0111 1.74197 16.2526 1.9545L16.6157 2.27409V3.32231C16.6157 3.89881 16.6068 4.37005 16.5961 4.36951C16.5854 4.36896 16.3537 4.29864 16.0813 4.21323C15.3933 3.99757 15.1654 4.01156 14.8906 4.28637C14.4243 4.75269 14.6846 5.31732 15.4103 5.41358C15.6241 5.44195 15.925 5.55079 16.079 5.65534C16.6297 6.02954 16.6157 5.90007 16.6157 10.6177C16.6157 14.3537 16.6009 14.878 16.4897 15.0988C15.8948 16.28 14.3675 16.3984 13.6106 15.3221C13.401 15.0241 13.3737 14.9226 13.379 14.4633C13.3822 14.1768 13.4124 13.7993 13.4459 13.6244C13.4988 13.3491 13.4809 13.2763 13.3133 13.0814C13.0794 12.8094 12.6525 12.7727 12.3983 13.0029C12.1422 13.2346 11.9816 13.9164 12.022 14.5999C12.0622 15.2777 12.2585 15.7898 12.6712 16.2935C12.8208 16.476 12.9432 16.6472 12.9432 16.6739C12.9432 16.7925 11.7889 17.2593 11.2853 17.3443C9.32276 17.6753 7.36572 16.4345 6.81001 14.5068C6.64553 13.9363 6.64232 12.9428 6.80313 12.3896L6.92643 11.9655L7.45394 12.1473C8.15265 12.3882 9.08475 12.5741 9.67485 12.5904C10.1069 12.6023 10.1704 12.583 10.3368 12.3896C10.5689 12.1198 10.5721 11.7819 10.3451 11.5261C10.195 11.3569 10.046 11.31 9.32518 11.2053C6.51457 10.7971 5.90447 9.89861 6.92909 7.67723C8.05271 5.24121 10.8435 2.47818 13.0028 1.66383C13.9914 1.29096 14.6185 1.24236 15.3848 1.47904ZM21.5178 1.62359C23.2075 2.24025 24.9738 3.70065 26.5153 5.75551C27.5011 7.06963 28.0571 8.21638 28.1529 9.13286C28.2737 10.2887 27.4589 10.8906 25.3504 11.2036C24.933 11.2655 24.5207 11.3541 24.4341 11.4004C24.0913 11.5838 24.0185 12.0382 24.2789 12.3691C24.424 12.5536 24.4933 12.575 24.9463 12.575C25.5404 12.575 26.4443 12.4023 27.1832 12.1476L27.71 11.966L27.8278 12.3628C27.9628 12.8176 27.9799 13.8552 27.8609 14.3721C27.41 16.3297 25.3579 17.6825 23.3525 17.3443C22.8645 17.2619 21.6946 16.7939 21.6946 16.681C21.6946 16.6581 21.823 16.4722 21.98 16.2677C22.4889 15.6045 22.5932 15.2888 22.5932 14.4112C22.5932 13.7857 22.562 13.5677 22.4369 13.3184C22.1634 12.7733 21.6769 12.6646 21.2993 13.0643C21.1591 13.2128 21.1429 13.2921 21.1922 13.5908C21.2241 13.7842 21.2534 14.1768 21.2575 14.4633C21.264 14.9237 21.2373 15.0233 21.0272 15.3221C20.4484 16.1453 19.3693 16.3075 18.6142 15.6851C18.0284 15.2022 18.0221 15.1659 18.0221 12.2617C18.0221 9.40454 18.0226 9.40142 18.5224 9.02026C18.6798 8.90024 18.9575 8.79062 19.2023 8.75194C19.9096 8.64012 20.2148 8.04065 19.7838 7.60972C19.51 7.33593 18.9442 7.36398 18.1589 7.69036C18.0302 7.74381 18.0221 7.58683 18.0221 5.0193V2.29143L18.2761 2.05577C19.1082 1.28354 20.1907 1.13922 21.5178 1.62359ZM2.43015 2.53077C2.19543 2.76542 2.17003 3.2083 2.37929 3.41756C2.4568 3.49507 2.94032 3.80043 3.45368 4.0961C4.52674 4.71417 4.80155 4.76832 5.10051 4.42084C5.30586 4.18205 5.33234 3.95538 5.18685 3.67955C5.05902 3.43701 3.14019 2.33894 2.84428 2.33894C2.71239 2.33894 2.54392 2.41692 2.43015 2.53077ZM30.5593 2.91771C29.9721 3.25354 29.507 3.57336 29.451 3.67955C29.3055 3.95538 29.3319 4.18205 29.5373 4.42084C29.8403 4.77309 30.1216 4.71816 31.1894 4.09806C31.6991 3.80215 32.1798 3.49624 32.2578 3.41826C32.6044 3.07164 32.2892 2.33894 31.7935 2.33894C31.6601 2.33894 31.166 2.5707 30.5593 2.91771ZM11.6539 5.49461C10.3747 5.80568 9.43715 6.88656 9.36284 8.13567C9.33448 8.61332 9.34894 8.67528 9.53209 8.85844C9.92192 9.24827 10.5501 9.01628 10.6384 8.44986C10.807 7.36828 11.274 6.86397 12.2202 6.742C12.6874 6.68168 12.9432 6.46219 12.9432 6.12135C12.9432 5.76059 12.8766 5.63073 12.625 5.50063C12.3659 5.36662 12.1849 5.36545 11.6539 5.49461ZM21.9886 5.5086C21.772 5.62612 21.6441 5.92132 21.6858 6.20676C21.7279 6.49493 21.9932 6.69121 22.4067 6.7402C23.2482 6.83991 23.8246 7.39594 23.9595 8.23834C24.0154 8.58691 24.0863 8.75225 24.2364 8.88297C24.5092 9.12067 24.8538 9.11036 25.1072 8.85695C25.294 8.67013 25.3062 8.61582 25.2712 8.12684C25.1785 6.83186 24.2043 5.7495 22.8824 5.47297C22.355 5.36256 22.25 5.36678 21.9886 5.5086ZM0.230343 10.817C0.0221842 10.9628 -0.0599384 11.3079 0.0467196 11.5885C0.176741 11.9303 0.533596 12.028 1.65229 12.028C2.33365 12.028 2.71708 11.9933 2.90547 11.9146C3.35312 11.7276 3.44688 11.205 3.09589 10.854C2.95485 10.713 2.83194 10.6997 1.66972 10.6997C0.665101 10.6997 0.36263 10.7244 0.230343 10.817ZM31.5419 10.854C31.1909 11.205 31.2847 11.7276 31.7323 11.9146C31.9207 11.9933 32.3041 12.028 32.9855 12.028C34.1042 12.028 34.4611 11.9303 34.5911 11.5885C34.6355 11.4714 34.6501 11.2764 34.6234 11.1551C34.5335 10.7455 34.3671 10.6997 32.9681 10.6997C31.8059 10.6997 31.683 10.713 31.5419 10.854ZM17.7214 16.673C18.2837 17.1785 18.8311 17.3701 19.7216 17.3729C20.1191 17.3742 20.4444 17.3861 20.4444 17.3993C20.4444 17.4126 20.3266 17.6599 20.1826 17.9489C20.0386 18.2379 19.8277 18.7213 19.7137 19.0231C19.3383 20.018 18.7662 20.4992 17.8236 20.6126C16.5328 20.768 15.7383 20.2822 15.2129 19.0163C15.0714 18.6753 14.8458 18.1853 14.7118 17.9274C14.5777 17.6696 14.4591 17.441 14.4481 17.4195C14.4372 17.398 14.7007 17.3769 15.0336 17.3725C15.8044 17.3622 16.4019 17.1399 16.9063 16.6756C17.1118 16.4865 17.2923 16.3304 17.3074 16.3287C17.3226 16.327 17.5089 16.4819 17.7214 16.673ZM4.42618 18.0235C4.14199 18.132 2.4307 19.1657 2.34178 19.2826C2.05095 19.665 2.38007 20.3106 2.86593 20.3106C3.08417 20.3106 4.29327 19.6781 4.98971 19.1996C5.23788 19.0291 5.34555 18.615 5.20842 18.3588C5.13606 18.2236 4.66958 17.9435 4.56542 17.9727C4.55331 17.976 4.49064 17.999 4.42618 18.0235ZM29.842 18.0224C29.4306 18.0996 29.215 18.7257 29.4888 19.0475C29.7274 19.3278 31.5038 20.3106 31.7719 20.3106C32.2602 20.3106 32.5865 19.6648 32.2934 19.2789C32.1837 19.1346 30.3881 18.0795 30.1573 18.0238C30.0797 18.005 29.9378 18.0044 29.842 18.0224ZM13.6397 18.7625C13.7842 19.0767 14.0413 19.6268 14.2111 19.9848C14.5415 20.6816 14.552 20.8897 14.2705 21.1711C14.1389 21.3028 14.0151 21.3233 13.3935 21.3162C12.9954 21.3116 12.5707 21.3472 12.4498 21.3952C12.3288 21.4434 12.2183 21.4827 12.2043 21.4827C12.115 21.4827 11.4147 20.8251 11.1151 20.4599C10.7485 20.013 10.2084 19.0596 10.2084 18.8594C10.2084 18.7762 10.3184 18.7479 10.6414 18.7479C11.245 18.7479 12.1799 18.5416 12.7424 18.2843C13.0032 18.165 13.2528 18.0953 13.2968 18.1292C13.341 18.1632 13.4952 18.4481 13.6397 18.7625ZM22.0367 18.361C22.4854 18.5595 23.4446 18.7479 24.0066 18.7479C24.2929 18.7479 24.4294 18.7794 24.4292 18.8455C24.4287 19.0506 23.8803 20.0199 23.5004 20.487C22.9603 21.1512 22.6002 21.4301 22.3766 21.3573C22.2809 21.3261 21.89 21.3066 21.5079 21.3141C21.1022 21.322 20.7709 21.2923 20.711 21.2426C20.6548 21.1958 20.5679 21.0341 20.5181 20.8831C20.4376 20.6393 20.4496 20.5679 20.6251 20.2447C20.7337 20.0446 20.9093 19.65 21.0153 19.3677C21.2594 18.7179 21.522 18.2009 21.6081 18.2009C21.6448 18.2009 21.8376 18.2729 22.0367 18.361ZM16.0213 21.7215C16.221 21.8098 16.578 21.9136 16.8147 21.9521C17.3741 22.0432 18.4868 21.9172 18.9539 21.71C19.2884 21.5616 19.3164 21.56 19.3896 21.6854C19.76 22.3205 20.4072 22.6705 21.2001 22.6644C21.4752 22.6622 21.7257 22.6447 21.7568 22.6255C21.7879 22.6063 21.9261 22.6379 22.0638 22.6958C22.3471 22.815 22.4594 23.097 22.3241 23.3498C22.2014 23.579 21.9387 23.6222 21.3267 23.5136C20.6922 23.4011 20.0986 23.4878 19.5304 23.7759C18.8703 24.1106 18.716 24.4519 18.9875 24.9768C19.2491 25.4828 19.1024 25.746 18.3454 26.1292C17.6642 26.474 16.6269 26.3202 16.0717 25.7921C15.7895 25.5236 15.7658 25.4719 15.8273 25.2577C15.8647 25.1273 15.9343 24.9478 15.982 24.8586C16.2304 24.3944 15.9255 23.9599 15.147 23.6686C14.6575 23.4855 14.0098 23.4424 13.313 23.5468C12.9284 23.6044 12.8397 23.5936 12.7075 23.474C12.6222 23.3969 12.5525 23.2392 12.5525 23.1236C12.5525 22.7538 12.7411 22.6713 13.6529 22.6422C14.4138 22.6178 14.5106 22.5968 14.864 22.3786C15.0753 22.2482 15.3333 22.0108 15.4372 21.8512C15.541 21.6915 15.6332 21.5608 15.6421 21.5608C15.6509 21.5608 15.8216 21.6331 16.0213 21.7215ZM15.4634 27.0313C15.7215 27.2037 16.1785 27.4193 16.4788 27.5105C17.4821 27.8153 18.7451 27.5986 19.5511 26.9833C19.9816 26.6547 20.1047 26.697 20.42 27.2824C20.5408 27.5067 20.7628 27.7739 20.9132 27.8762C21.1667 28.0486 21.2361 28.0586 21.8634 28.0129C22.4992 27.9665 22.5531 27.9748 22.7555 28.1488C22.9057 28.278 22.9708 28.4085 22.9708 28.5798C22.9708 29.1089 22.42 29.3523 21.8642 29.0688C21.4693 28.8674 21.1403 28.8629 20.5916 29.0517C19.6257 29.384 19.0379 29.8059 19.0379 30.1667C19.0379 30.2471 19.1083 30.444 19.1942 30.6044C19.4158 31.0179 19.3968 31.3335 19.1356 31.5783C18.3343 32.3292 16.8584 32.395 15.9283 31.7212C15.5332 31.4351 15.4712 31.1913 15.6757 30.7289C16.007 29.98 15.8115 29.653 14.7738 29.221C13.9591 28.8819 13.5426 28.8424 13.0667 29.0591C12.6439 29.2518 12.3836 29.2262 12.1032 28.9645C11.8117 28.6924 11.8801 28.2714 12.2468 28.0818C12.4144 27.9951 12.6284 27.978 13.1164 28.012C13.9168 28.0679 14.1622 27.9441 14.475 27.3269C14.6528 26.976 14.8515 26.73 14.9649 26.7204C14.981 26.719 15.2054 26.8589 15.4634 27.0313ZM15.3659 32.9301C16.0213 33.3712 16.7123 33.5425 17.6652 33.5001C18.3558 33.4694 18.5371 33.4309 18.991 33.2185C19.2802 33.0832 19.6143 32.903 19.7335 32.8181L19.9503 32.6637L20.295 33.0153C20.9321 33.6651 21.5954 33.8624 22.6713 33.7224C23.0905 33.6679 23.1688 33.6808 23.4111 33.844C23.7749 34.0892 23.882 34.4535 23.6933 34.8038C23.4528 35.2504 22.9351 35.357 22.3588 35.0786C22.1869 34.9956 21.9383 34.9265 21.8065 34.925C21.188 34.9181 19.6022 35.6276 19.4399 35.9838C19.3162 36.2552 19.3266 36.3663 19.5092 36.7243C19.9031 37.4963 19.62 38.015 18.5691 38.4464C18.2385 38.5821 17.986 38.6228 17.4752 38.6227C16.6315 38.6224 16.0176 38.4023 15.5413 37.9293C15.1459 37.5368 15.1239 37.3446 15.4063 36.7477C15.6524 36.2275 15.6066 36.0006 15.1951 35.7025C14.7614 35.3883 13.7751 34.9944 13.2993 34.9453C12.9839 34.9128 12.8244 34.9399 12.5709 35.0693C12.0931 35.313 11.6581 35.2902 11.3744 35.0065C11.0634 34.6955 11.0625 34.3151 11.3719 33.9687C11.6163 33.6952 11.5349 33.7074 12.8465 33.747C13.3321 33.7616 13.4844 33.7311 13.9014 33.5354C14.1931 33.3986 14.4985 33.1789 14.6622 32.9882C14.8126 32.813 14.9409 32.6666 14.9474 32.663C14.9538 32.6593 15.1421 32.7795 15.3659 32.9301Z" fill="white"/>
</svg>
