<svg xmlns="http://www.w3.org/2000/svg" width="24" height="24" viewBox="0 0 24 24" fill="none"><path fill-rule="evenodd" clip-rule="evenodd" d="M14.8489 5.65787C14.3921 5.65768 13.9409 5.75892 13.5279 5.95429C13.115 6.14965 12.7506 6.43427 12.4609 6.78759C12.1713 7.14091 11.9638 7.55412 11.8533 7.99739C11.7428 8.44067 11.7321 8.90295 11.8219 9.35087C11.8529 9.50607 11.8465 9.66639 11.8035 9.81866C11.7604 9.97094 11.6817 10.1108 11.5741 10.2268C11.4664 10.3428 11.3327 10.4315 11.1841 10.4858C11.0354 10.54 10.876 10.5582 10.7189 10.5389C8.56867 10.2747 6.54166 9.39082 4.88494 7.99487C4.91594 8.59687 5.12494 9.23687 5.57794 9.90687L6.25694 10.9109L5.14194 11.3859L4.92694 11.4779C5.08694 11.6609 5.27894 11.8479 5.49394 12.0329C5.78135 12.2789 6.08541 12.5047 6.40394 12.7089L6.41494 12.7159H6.41594L7.96394 13.6549L6.34394 14.4649C6.26394 14.5049 6.18394 14.5409 6.10394 14.5729C6.45228 14.8623 6.83602 15.1063 7.24594 15.2989L8.63594 15.9559L7.47194 16.9599C6.83694 17.5079 6.19794 17.9169 5.36894 18.1329C6.64037 18.8101 8.05938 19.1629 9.49994 19.1599C14.3059 19.1599 18.1759 15.3249 18.1759 10.6259V10.1059L18.6009 9.80687C19.2649 9.34087 19.7339 8.71087 20.0699 7.98987H17.9099L17.6379 7.41987C17.3875 6.89254 16.9926 6.44707 16.4991 6.13518C16.0056 5.82329 15.4337 5.65778 14.8499 5.65787H14.8489ZM3.56894 12.9579C3.47457 13.0659 3.40457 13.193 3.36367 13.3306C3.32278 13.4681 3.31196 13.6128 3.33194 13.7549C3.44494 14.5559 3.92394 15.2459 4.45394 15.7729C4.59794 15.9159 4.75194 16.0529 4.91394 16.1839L4.83894 16.2039C4.35794 16.3239 3.70894 16.3489 2.62794 16.2439C2.4238 16.2238 2.21843 16.2671 2.03969 16.3677C1.86095 16.4683 1.71748 16.6215 1.62873 16.8064C1.53997 16.9913 1.51024 17.1991 1.54355 17.4015C1.57686 17.6039 1.6716 17.7911 1.81494 17.9379C2.81571 18.9608 4.01123 19.7729 5.33096 20.3263C6.65069 20.8797 8.06789 21.1631 9.49894 21.1599C15.2119 21.1599 19.8979 16.7239 20.1629 11.1259C21.4529 10.0429 22.0979 8.57587 22.4459 7.24287C22.4846 7.09492 22.4889 6.94007 22.4583 6.79022C22.4278 6.64038 22.3633 6.49953 22.2698 6.37851C22.1763 6.25749 22.0563 6.15953 21.9191 6.09216C21.7818 6.02478 21.6309 5.98979 21.4779 5.98987H19.1249C18.5494 5.09619 17.7083 4.40531 16.7198 4.0143C15.7314 3.6233 14.6453 3.55182 13.6141 3.80991C12.5829 4.06801 11.6585 4.64271 10.9708 5.45325C10.2831 6.26379 9.86664 7.26943 9.77994 8.32887C7.93659 7.84902 6.28727 6.80967 5.05894 5.35387C4.95016 5.22525 4.81065 5.1262 4.65336 5.0659C4.49607 5.0056 4.32609 4.98602 4.15921 5.00896C3.99233 5.0319 3.83395 5.09663 3.69876 5.19713C3.56358 5.29764 3.45598 5.43067 3.38594 5.58387C2.77994 6.90587 2.66394 8.42987 3.33994 9.97987L3.10594 10.0799C2.88201 10.1753 2.70058 10.3491 2.59564 10.5687C2.49071 10.7884 2.46948 11.0387 2.53594 11.2729C2.72194 11.9249 3.13994 12.5009 3.56794 12.9579H3.56894Z" fill="white"></path></svg>