<svg xmlns="http://www.w3.org/2000/svg" width="92" height="95" viewBox="0 0 92 95" fill="none"><path fill-rule="evenodd" clip-rule="evenodd" d="M40.3936 15.971C38.9736 16.837 37.9187 18.7841 36.8751 22.4667C36.7791 22.8044 35.6044 23.6637 34.2646 24.3758C32.9249 25.0883 31.4388 25.9466 30.963 26.2838C30.29 26.7602 29.4577 26.7627 27.2271 26.295C22.5273 25.3092 20.4201 26.7368 17.1002 33.1573C15.345 36.5519 15.6314 38.4285 18.3821 41.5529C20.3363 43.7728 20.4013 43.9647 20.4013 47.5C20.4013 51.0353 20.3363 51.2272 18.3821 53.4471C15.6314 56.5715 15.345 58.4481 17.1002 61.8427C20.4262 68.2748 22.317 69.5328 27.3678 68.6725C30.0387 68.2175 30.6649 68.2576 31.4307 68.9315C31.9289 69.3693 33.3185 70.222 34.5196 70.8259C35.7202 71.4297 36.7806 72.1991 36.8761 72.5354C38.6927 78.9528 40.0147 80 46.3026 80C52.5905 80 53.9125 78.9528 55.7292 72.5354C55.8246 72.1991 56.8851 71.4297 58.0857 70.8259C59.2868 70.222 60.6763 69.3693 61.1745 68.9315C61.9404 68.2576 62.5666 68.2175 65.2375 68.6725C70.2882 69.5328 72.179 68.2748 75.505 61.8427C77.2602 58.4481 76.9738 56.5715 74.2232 53.4471C72.2689 51.2272 72.2039 51.0353 72.2039 47.5C72.2039 43.9647 72.2689 43.7728 74.2232 41.5529C76.9738 38.4285 77.2602 36.5519 75.505 33.1573C72.1851 26.7368 70.078 25.3092 65.3781 26.295C63.1476 26.7627 62.3152 26.7602 61.6423 26.2838C61.1664 25.9466 59.6804 25.0883 58.3406 24.3758C57.0009 23.6637 55.8262 22.8044 55.7302 22.4667C53.9095 16.0437 52.5921 15 46.3026 15C42.9461 15 41.6318 15.2164 40.3936 15.971ZM50.8963 18.0558C51.4544 18.3545 52.204 19.7333 52.6581 21.2945C53.5397 24.3275 53.8419 24.6475 58.4198 27.4032C61.4767 29.2432 61.8033 29.3285 64.5143 28.9907C69.8083 28.331 70.1211 28.4966 72.6889 33.3132C74.5609 36.8256 74.4761 37.4315 71.6574 40.6885L69.6646 42.9911V47.5V52.0089L71.6574 54.3115C74.4761 57.5685 74.5609 58.1744 72.6889 61.6868C70.1211 66.5034 69.8083 66.669 64.5143 66.0092C61.8033 65.6715 61.4767 65.7568 58.4198 67.5968C53.8419 70.3525 53.5397 70.6725 52.6581 73.7055C52.204 75.2667 51.4544 76.6455 50.8963 76.9442C49.6368 77.6181 42.9685 77.6181 41.709 76.9442C41.1508 76.6455 40.4012 75.2667 39.9472 73.7055C39.0655 70.6725 38.7633 70.3525 34.1854 67.5968C31.1285 65.7568 30.802 65.6715 28.091 66.0092C22.797 66.669 22.4841 66.5034 19.9163 61.6868C18.0443 58.1744 18.1291 57.5685 20.9478 54.3115L22.9407 52.0089V47.5V42.9911L20.9478 40.6885C18.1291 37.4315 18.0443 36.8256 19.9163 33.3132C22.4841 28.4966 22.797 28.331 28.091 28.9907C30.802 29.3285 31.1285 29.2432 34.1854 27.4032C38.7623 24.6485 39.0655 24.327 39.9446 21.3026C40.3778 19.8126 41.1285 18.3621 41.613 18.0797C42.7684 17.4068 49.65 17.389 50.8963 18.0558ZM40.3728 29.4397C37.3443 30.3869 35.1148 31.8856 32.3733 34.8165C28.6121 38.8373 27.7654 41.1674 27.7654 47.5C27.7654 51.9179 27.9564 53.2465 28.8797 55.2455C30.4353 58.6132 34.7192 62.9676 38.1214 64.638C40.681 65.8955 41.5109 66.0372 46.3026 66.0372C51.0944 66.0372 51.9242 65.8955 54.4839 64.638C57.9115 62.9549 62.1974 58.5827 63.6915 55.2455C65.7748 50.5909 65.3121 40.6773 62.9414 39.1821C61.4163 38.2197 60.9079 39.4061 61.783 41.8855C62.8007 44.7707 62.7636 50.2567 61.7058 53.377C61.106 55.1444 59.9262 56.8128 57.6895 59.054C53.0867 63.6675 52.8414 63.5207 53.0156 56.2607L53.1588 50.2933L56.333 50.1419C58.9242 50.0185 59.5072 49.8321 59.5072 49.1262C59.5072 47.9124 47.2066 33.5336 46.168 33.5336C45.1147 33.5336 33.098 47.8748 33.098 49.1323C33.098 49.9022 33.5587 50.0393 36.1453 50.0393H39.1925V56.1338C39.1925 60.2023 39.0081 62.2282 38.6374 62.2282C38.3321 62.2282 36.6577 60.8 34.9157 59.054C31.2057 55.3354 30.0508 52.5934 30.0508 47.5C30.0508 42.4376 31.2108 39.658 34.8355 36.0328C37.002 33.8668 38.6694 32.6926 40.4256 32.0969C43.9172 30.913 49.1807 30.9963 52.4565 32.2873C55.3462 33.4265 56.6789 33.0395 55.6438 31.361C54.2416 29.0878 45.1548 27.9445 40.3728 29.4397ZM58.2076 34.8521C58.0181 35.1583 58.1761 35.721 58.5585 36.1034C59.4391 36.9841 60.7921 36.237 60.3589 35.1085C60.0019 34.1781 58.7185 34.0252 58.2076 34.8521ZM51.0293 42.1674L55.3797 47.2461L53.5138 47.4111C50.4285 47.6833 50.3656 47.8586 50.3656 56.1957V63.7518H46.3026H42.2397L42.2321 56.5147C42.2275 52.534 42.0188 48.9525 41.7674 48.5559C41.516 48.1587 40.386 47.7016 39.2565 47.5401L37.2026 47.2461L41.5576 42.0181C43.9532 39.1425 46.0853 36.8571 46.296 36.9394C46.5068 37.0212 48.6368 39.3741 51.0293 42.1674Z" fill="#DA8566"></path></svg>