<svg xmlns="http://www.w3.org/2000/svg" width="18" height="17" viewBox="0 0 18 17" fill="none"><path fill-rule="evenodd" clip-rule="evenodd" d="M4.27287 4.95616L4.77537 10.9328C4.81204 11.3928 5.18787 11.7378 5.64704 11.7378H5.65037H14.7429H14.7445C15.1787 11.7378 15.5495 11.4145 15.6112 10.9853L16.4029 5.51949C16.4212 5.38949 16.3887 5.25949 16.3095 5.15449C16.2312 5.04866 16.1162 4.98033 15.9862 4.96199C15.812 4.96866 8.58454 4.95866 4.27287 4.95616ZM5.64533 12.9878C4.54783 12.9878 3.61866 12.1311 3.5295 11.0353L2.76616 1.95695L1.51033 1.74028C1.1695 1.68028 0.941998 1.35778 1.00033 1.01695C1.06033 0.676117 1.3895 0.45445 1.72283 0.507784L3.45616 0.807784C3.73533 0.85695 3.94783 1.08862 3.972 1.37195L4.16783 3.70612C16.0645 3.71112 16.1028 3.71695 16.1603 3.72362C16.6245 3.79112 17.0328 4.03362 17.3112 4.40695C17.5895 4.77945 17.7062 5.23862 17.6395 5.69862L16.8487 11.1636C16.6995 12.2036 15.7962 12.9878 14.7462 12.9878H14.742H5.652H5.64533Z" fill="#130F26"></path><path fill-rule="evenodd" clip-rule="evenodd" d="M13.4057 8.03638H11.0957C10.7499 8.03638 10.4707 7.75638 10.4707 7.41138C10.4707 7.06638 10.7499 6.78638 11.0957 6.78638H13.4057C13.7507 6.78638 14.0307 7.06638 14.0307 7.41138C14.0307 7.75638 13.7507 8.03638 13.4057 8.03638Z" fill="#130F26"></path><path fill-rule="evenodd" clip-rule="evenodd" d="M5.28717 15.2516C5.53801 15.2516 5.74051 15.4541 5.74051 15.7049C5.74051 15.9558 5.53801 16.1591 5.28717 16.1591C5.03551 16.1591 4.83301 15.9558 4.83301 15.7049C4.83301 15.4541 5.03551 15.2516 5.28717 15.2516Z" fill="#130F26"></path><mask id="mask0_748_2" style="mask-type:alpha" maskUnits="userSpaceOnUse" x="4" y="15" width="2" height="2"><path fill-rule="evenodd" clip-rule="evenodd" d="M4.83203 15.7046C4.83203 15.9562 5.03453 16.1596 5.28703 16.1596C5.53786 16.1596 5.74037 15.9562 5.74037 15.7046C5.74037 15.4537 5.53786 15.2512 5.28703 15.2512C5.03453 15.2512 4.83203 15.4537 4.83203 15.7046Z" fill="white"></path></mask><g mask="url(#mask0_748_2)"><path fill-rule="evenodd" clip-rule="evenodd" d="M0.666016 20.3254H9.90685V11.0846H0.666016V20.3254Z" fill="#130F26"></path></g><path fill-rule="evenodd" clip-rule="evenodd" d="M5.28636 15.534C5.1922 15.534 5.11553 15.6107 5.11553 15.7048C5.11553 15.894 5.45803 15.894 5.45803 15.7048C5.45803 15.6107 5.38053 15.534 5.28636 15.534ZM5.28634 16.784C4.69134 16.784 4.20801 16.2998 4.20801 15.7048C4.20801 15.1098 4.69134 14.6265 5.28634 14.6265C5.88134 14.6265 6.36551 15.1098 6.36551 15.7048C6.36551 16.2998 5.88134 16.784 5.28634 16.784Z" fill="#130F26"></path><path fill-rule="evenodd" clip-rule="evenodd" d="M14.6876 15.2516C14.9384 15.2516 15.1417 15.4541 15.1417 15.7049C15.1417 15.9558 14.9384 16.1591 14.6876 16.1591C14.4359 16.1591 14.2334 15.9558 14.2334 15.7049C14.2334 15.4541 14.4359 15.2516 14.6876 15.2516Z" fill="#130F26"></path><mask id="mask1_748_2" style="mask-type:alpha" maskUnits="userSpaceOnUse" x="14" y="15" width="2" height="2"><path fill-rule="evenodd" clip-rule="evenodd" d="M14.2334 15.7046C14.2334 15.9562 14.4359 16.1596 14.6876 16.1596C14.9376 16.1596 15.1417 15.9562 15.1417 15.7046C15.1417 15.4537 14.9376 15.2512 14.6876 15.2512C14.4359 15.2512 14.2334 15.4537 14.2334 15.7046Z" fill="white"></path></mask><g mask="url(#mask1_748_2)"><path fill-rule="evenodd" clip-rule="evenodd" d="M10.0664 20.3254H19.3081V11.0846H10.0664V20.3254Z" fill="#130F26"></path></g><path fill-rule="evenodd" clip-rule="evenodd" d="M14.6858 15.534C14.5924 15.534 14.5158 15.6106 14.5158 15.7048C14.5166 15.8956 14.8583 15.894 14.8574 15.7048C14.8574 15.6106 14.7799 15.534 14.6858 15.534ZM14.6858 16.784C14.0908 16.784 13.6074 16.2998 13.6074 15.7048C13.6074 15.1098 14.0908 14.6265 14.6858 14.6265C15.2816 14.6265 15.7658 15.1098 15.7658 15.7048C15.7658 16.2998 15.2816 16.784 14.6858 16.784Z" fill="#130F26"></path></svg>