<svg xmlns="http://www.w3.org/2000/svg" width="14" height="18" viewBox="0 0 14 18" fill="none"><mask id="mask0_748_25" style="mask-type:alpha" maskUnits="userSpaceOnUse" x="0" y="11" width="14" height="7"><path fill-rule="evenodd" clip-rule="evenodd" d="M0.333008 11.3041H13.5329V17.4491H0.333008V11.3041Z" fill="white"></path></mask><g mask="url(#mask0_748_25)"><path fill-rule="evenodd" clip-rule="evenodd" d="M6.93384 12.5541C3.38301 12.5541 1.58301 13.1641 1.58301 14.3682C1.58301 15.5832 3.38301 16.1991 6.93384 16.1991C10.4838 16.1991 12.283 15.5891 12.283 14.3849C12.283 13.1699 10.4838 12.5541 6.93384 12.5541ZM6.93384 17.4491C5.30134 17.4491 0.333008 17.4491 0.333008 14.3682C0.333008 11.6216 4.10051 11.3041 6.93384 11.3041C8.56634 11.3041 13.533 11.3041 13.533 14.3849C13.533 17.1316 9.76634 17.4491 6.93384 17.4491Z" fill="#130F26"></path></g><mask id="mask1_748_25" style="mask-type:alpha" maskUnits="userSpaceOnUse" x="2" y="0" width="10" height="10"><path fill-rule="evenodd" clip-rule="evenodd" d="M2.50781 0.890747H11.3578V9.73958H2.50781V0.890747Z" fill="white"></path></mask><g mask="url(#mask1_748_25)"><path fill-rule="evenodd" clip-rule="evenodd" d="M6.93367 2.08038C5.14951 2.08038 3.69784 3.53121 3.69784 5.31538C3.69201 7.09371 5.13284 8.54371 6.9095 8.55038L6.93367 9.14538V8.55038C8.717 8.55038 10.1678 7.09871 10.1678 5.31538C10.1678 3.53121 8.717 2.08038 6.93367 2.08038ZM6.93367 9.73955H6.90701C4.47201 9.73205 2.49951 7.74622 2.50784 5.31288C2.50784 2.87538 4.49284 0.890381 6.93367 0.890381C9.37367 0.890381 11.3578 2.87538 11.3578 5.31538C11.3578 7.75538 9.37367 9.73955 6.93367 9.73955Z" fill="#130F26"></path></g></svg>