<svg xmlns="http://www.w3.org/2000/svg" width="18" height="19" viewBox="0 0 18 19" fill="none"><mask id="mask0_748_225" style="mask-type:alpha" maskUnits="userSpaceOnUse" x="0" y="0" width="17" height="18"><path fill-rule="evenodd" clip-rule="evenodd" d="M0.666992 0.890625H16.8977V17.1215H0.666992V0.890625Z" fill="white"></path></mask><g mask="url(#mask0_748_225)"><path fill-rule="evenodd" clip-rule="evenodd" d="M8.78283 2.14062C4.99699 2.14062 1.91699 5.21979 1.91699 9.00562C1.91699 12.7915 4.99699 15.8715 8.78283 15.8715C12.5678 15.8715 15.6478 12.7915 15.6478 9.00562C15.6478 5.21979 12.5678 2.14062 8.78283 2.14062ZM8.78283 17.1215C4.30783 17.1215 0.666992 13.4806 0.666992 9.00563C0.666992 4.53063 4.30783 0.890625 8.78283 0.890625C13.2578 0.890625 16.8978 4.53063 16.8978 9.00563C16.8978 13.4806 13.2578 17.1215 8.78283 17.1215Z" fill="#130F26"></path></g><mask id="mask1_748_225" style="mask-type:alpha" maskUnits="userSpaceOnUse" x="13" y="13" width="5" height="6"><path fill-rule="evenodd" clip-rule="evenodd" d="M13.3672 13.9797H17.5539V18.1587H13.3672V13.9797Z" fill="white"></path></mask><g mask="url(#mask1_748_225)"><path fill-rule="evenodd" clip-rule="evenodd" d="M16.9291 18.1587C16.7699 18.1587 16.6099 18.0979 16.4874 17.9762L13.5507 15.0479C13.3066 14.8037 13.3057 14.4079 13.5499 14.1637C13.7932 13.9179 14.1891 13.9195 14.4341 14.162L17.3707 17.0912C17.6149 17.3354 17.6157 17.7304 17.3716 17.9745C17.2499 18.0979 17.0891 18.1587 16.9291 18.1587Z" fill="#130F26"></path></g></svg>