<svg xmlns="http://www.w3.org/2000/svg" width="27" height="27" viewBox="0 0 27 27" fill="none"><mask style="mask-type:alpha" maskUnits="userSpaceOnUse" x="0" y="0" width="27" height="27"><path fill-rule="evenodd" clip-rule="evenodd" d="M0.5 0.500244H26.1245V26.1246H0.5V0.500244Z" fill="white"></path></mask><g mask="url(#mask0_1030_493)"><path fill-rule="evenodd" clip-rule="evenodd" d="M3.44886 4.32583C3.45136 4.32583 3.38886 4.39083 3.31011 4.46833C3.00761 4.76208 2.38136 5.37333 2.37511 6.65208C2.36511 8.44083 3.54136 11.7621 9.2051 17.4246C14.8426 23.0596 18.1589 24.2496 19.9514 24.2496H19.9776C21.2564 24.2433 21.8664 23.6158 22.1614 23.3146C22.2514 23.2221 22.3239 23.1546 22.3751 23.1121C23.6201 21.8596 24.2576 20.9271 24.2514 20.3296C24.2426 19.7196 23.4839 18.9983 22.4351 18.0008C22.1014 17.6833 21.7389 17.3383 21.3564 16.9558C20.3651 15.9671 19.8739 16.1358 18.7939 16.5158C17.3001 17.0396 15.2501 17.7521 12.0651 14.5658C8.8751 11.3783 9.58885 9.33083 10.1114 7.83708C10.4889 6.75708 10.6614 6.26458 9.66886 5.27208C9.28011 4.88458 8.93136 4.51708 8.61011 4.17958C7.61886 3.13708 6.90386 2.38333 6.29761 2.37458H6.28761C5.68886 2.37458 4.75886 3.01458 3.44261 4.33083C3.44636 4.32708 3.44761 4.32583 3.44886 4.32583ZM19.9526 26.1246C16.8376 26.1246 12.7764 23.6446 7.8801 18.7508C2.96511 13.8371 0.481355 9.76333 0.500105 6.64208C0.511355 4.57958 1.59261 3.52333 1.99886 3.12708C2.02011 3.10083 2.09261 3.02958 2.11761 3.00458C3.9101 1.21083 5.11885 0.485831 6.32135 0.499581C7.7176 0.518331 8.71135 1.56333 9.96885 2.88708C10.2801 3.21458 10.6176 3.57083 10.9939 3.94583C12.8189 5.77083 12.2989 7.25958 11.8814 8.45458C11.4264 9.75833 11.0326 10.8833 13.3901 13.2408C15.7501 15.5983 16.8751 15.2046 18.1739 14.7458C19.3701 14.3283 20.8551 13.8058 22.6826 15.6308C23.0526 16.0008 23.4039 16.3346 23.7276 16.6433C25.0576 17.9071 26.1076 18.9058 26.1251 20.3058C26.1401 21.4996 25.4151 22.7158 23.6251 24.5071L22.8326 23.9696L23.5026 24.6246C23.1064 25.0308 22.0514 26.1133 19.9876 26.1246H19.9526Z" fill="#7093E5"></path></g></svg>