<svg xmlns="http://www.w3.org/2000/svg" width="28" height="25" viewBox="0 0 28 25" fill="none"><path fill-rule="evenodd" clip-rule="evenodd" d="M13.7217 14.831C12.8854 14.831 12.0516 14.5547 11.3541 14.0022L5.7479 9.48224C5.34415 9.15724 5.28165 8.56599 5.6054 8.16349C5.93165 7.76224 6.52165 7.69849 6.92415 8.02224L12.5254 12.5372C13.2292 13.0947 14.2204 13.0947 14.9291 12.5322L20.4741 8.02474C20.8766 7.69599 21.4667 7.75849 21.7941 8.16099C22.1204 8.56224 22.0592 9.15224 21.6579 9.47974L16.1029 13.9947C15.4004 14.5522 14.5604 14.831 13.7217 14.831Z" fill="#7093E5"></path><mask style="mask-type:alpha" maskUnits="userSpaceOnUse" x="0" y="0" width="28" height="25"><path fill-rule="evenodd" clip-rule="evenodd" d="M0.25 0.5H27.1249V24.875H0.25V0.5Z" fill="white"></path></mask><g mask="url(#mask0_797_2541)"><path fill-rule="evenodd" clip-rule="evenodd" d="M7.54875 23H19.8237C19.8263 22.9975 19.8363 23 19.8438 23C21.27 23 22.535 22.49 23.505 21.5212C24.6313 20.4 25.25 18.7887 25.25 16.985V8.4C25.25 4.90875 22.9675 2.375 19.8237 2.375H7.55125C4.4075 2.375 2.125 4.90875 2.125 8.4V16.985C2.125 18.7887 2.745 20.4 3.87 21.5212C4.84 22.49 6.10625 23 7.53125 23H7.54875ZM7.5275 24.875C5.59875 24.875 3.87625 24.175 2.54625 22.85C1.065 21.3725 0.25 19.29 0.25 16.985V8.4C0.25 3.89625 3.38875 0.5 7.55125 0.5H19.8238C23.9863 0.5 27.125 3.89625 27.125 8.4V16.985C27.125 19.29 26.31 21.3725 24.8288 22.85C23.5 24.1737 21.7763 24.875 19.8438 24.875H19.8238H7.55125H7.5275Z" fill="#7093E5"></path></g></svg>