<svg xmlns="http://www.w3.org/2000/svg" width="35" height="36" viewBox="0 0 35 36" fill="none"><g clip-path="url(#clip-112)"><path d="M22.4696 15.5037C22.0427 15.0768 21.3498 15.0766 20.9227 15.5037L18.8762 17.5502C17.6255 17.0248 15.538 14.9419 15.0092 13.6832L17.0558 11.6367C17.4829 11.2095 17.4829 10.517 17.0558 10.0899L12.802 5.83607C12.3752 5.40923 11.6822 5.40896 11.2552 5.83607L8.93502 8.15629C7.78444 9.3068 7.64369 11.2218 8.53866 13.5486C11.1171 20.2527 20.7802 27.2473 24.4032 23.6245L26.7234 21.3043C27.1505 20.8771 27.1505 20.1846 26.7234 19.7575L22.4696 15.5037ZM22.8563 22.0777C22.3758 22.5581 21.2031 22.5204 19.796 21.9791C16.1602 20.5808 11.9828 16.4099 10.5802 12.7634C10.039 11.3562 10.0012 10.1836 10.4817 9.70309L12.0285 8.15629L14.7354 10.8632L13.1887 12.41C12.7763 12.8223 12.4525 13.6158 13.2518 15.0544C14.4244 17.1652 18.4313 21.0887 20.1493 19.3708L21.6961 17.824L24.4031 20.5309L22.8563 22.0777Z" fill="#FE9435"></path><path d="M26.2499 0.540527H8.74961C5.43255 0.540527 2.73389 3.23919 2.73389 6.55625V24.0565C2.73389 27.3736 5.43255 30.0722 8.74961 30.0722H13.5992L16.5618 35.01C16.985 35.7153 18.0119 35.7195 18.4376 35.01L21.4003 30.0722H26.2499C29.5669 30.0722 32.2656 27.3736 32.2656 24.0565V6.55625C32.2656 3.23919 29.567 0.540527 26.2499 0.540527ZM30.0781 24.0565C30.0781 26.1674 28.3607 27.8847 26.2499 27.8847H20.781C20.3969 27.8847 20.0408 28.0863 19.8431 28.4158L17.4997 32.3214L15.1563 28.4158C14.9586 28.0864 14.6026 27.8847 14.2184 27.8847H8.74961C6.63877 27.8847 4.92142 26.1674 4.92142 24.0565V6.55625C4.92142 4.44534 6.63877 2.72806 8.74961 2.72806H26.2499C28.3607 2.72806 30.0781 4.44534 30.0781 6.55625V24.0565Z" fill="#76BAAF"></path></g><defs><clipPath id="clip-112"><rect width="35" height="35" fill="white" transform="translate(0 0.540527)"></rect></clipPath></defs></svg>