<svg xmlns="http://www.w3.org/2000/svg" width="35" height="36" viewBox="0 0 35 36" fill="none"><g clip-path="url(#clip0_454_1424)"><path d="M24.0625 11.2046C24.2801 11.2046 24.4887 11.1182 24.6425 10.9643C24.7964 10.8105 24.8828 10.6018 24.8828 10.3843C24.8828 10.1667 24.7964 9.95807 24.6425 9.80423C24.4887 9.65039 24.2801 9.56396 24.0625 9.56396H8.75C8.53244 9.56396 8.32379 9.65039 8.16995 9.80423C8.01611 9.95807 7.92969 10.1667 7.92969 10.3843C7.92969 10.6018 8.01611 10.8105 8.16995 10.9643C8.32379 11.1182 8.53244 11.2046 8.75 11.2046H24.0625Z" fill="#FE9435"></path><path d="M32.5391 22.6441V7.37646C32.5386 6.94149 32.3656 6.52448 32.058 6.21691C31.7504 5.90934 31.3334 5.73633 30.8984 5.73584H21.6016V2.45459C21.6011 2.01962 21.428 1.60262 21.1205 1.29505C20.8129 0.987485 20.3959 0.814471 19.9609 0.813965H12.8516C12.4166 0.814471 11.9996 0.987485 11.692 1.29505C11.3845 1.60262 11.2114 2.01962 11.2109 2.45459V5.73584H1.91406C1.47909 5.73633 1.06208 5.90934 0.754505 6.21691C0.446934 6.52448 0.273926 6.94149 0.273438 7.37646V27.064C0.273926 27.4989 0.446934 27.916 0.754505 28.2235C1.06208 28.5311 1.47909 28.7041 1.91406 28.7046H20.0067C20.137 29.8785 20.5471 31.0041 21.2024 31.9867C21.8578 32.9694 22.7394 33.7805 23.7731 34.3518C24.8069 34.9232 25.9627 35.2382 27.1434 35.2704C28.3241 35.3026 29.4953 35.051 30.5586 34.5368C31.622 34.0225 32.5464 33.2607 33.2544 32.3152C33.9623 31.3697 34.433 30.2681 34.627 29.103C34.8211 27.9379 34.7327 26.7433 34.3694 25.6194C34.0061 24.4955 33.3784 23.4752 32.5391 22.6441ZM12.8516 2.45459H19.9609V5.73584H12.8516V2.45459ZM1.91406 7.37646H30.8984V17.2202H18.8672V16.3999C18.8672 16.1823 18.7808 15.9737 18.6269 15.8199C18.4731 15.666 18.2644 15.5796 18.0469 15.5796H14.7656C14.5481 15.5796 14.3394 15.666 14.1856 15.8199C14.0317 15.9737 13.9453 16.1823 13.9453 16.3999V17.2202H1.91406V7.37646ZM15.5859 17.2202H17.2266V19.8882L16.4062 20.7085L15.5859 19.8882V17.2202ZM1.91406 18.8608H13.9453V20.228C13.9453 20.4456 14.0318 20.6542 14.1856 20.8081L15.8262 22.4487C15.9801 22.6025 16.1887 22.6889 16.4062 22.6889C16.6238 22.6889 16.8324 22.6025 16.9863 22.4487L18.6269 20.8081C18.7807 20.6542 18.8672 20.4456 18.8672 20.228V18.8608H30.8984V21.4154C29.8355 20.8306 28.6448 20.5169 27.4317 20.502C26.2186 20.4871 25.0206 20.7715 23.9436 21.3301C22.8667 21.8886 21.944 22.704 21.2573 23.7041C20.5706 24.7043 20.1411 25.8583 20.0067 27.064H1.91406V18.8608ZM28.1641 33.5669V32.8062C28.1641 32.5886 28.0776 32.3799 27.9238 32.2261C27.77 32.0723 27.5613 31.9858 27.3438 31.9858C27.1262 31.9858 26.9175 32.0723 26.7637 32.2261C26.6099 32.3799 26.5234 32.5886 26.5234 32.8062V33.5669C25.2975 33.388 24.1621 32.8181 23.286 31.942C22.41 31.066 21.8401 29.9305 21.6611 28.7046H22.4219C22.6394 28.7046 22.8481 28.6182 23.0019 28.4643C23.1558 28.3105 23.2422 28.1018 23.2422 27.8843C23.2422 27.6667 23.1558 27.4581 23.0019 27.3042C22.8481 27.1504 22.6394 27.064 22.4219 27.064H21.6611C21.8401 25.838 22.41 24.7026 23.286 23.8265C24.1621 22.9505 25.2975 22.3806 26.5234 22.2016V22.9624C26.5234 23.18 26.6099 23.3886 26.7637 23.5425C26.9175 23.6963 27.1262 23.7827 27.3438 23.7827C27.5613 23.7827 27.77 23.6963 27.9238 23.5425C28.0776 23.3886 28.1641 23.18 28.1641 22.9624V22.2016C29.39 22.3806 30.5254 22.9505 31.4015 23.8265C32.2775 24.7026 32.8474 25.838 33.0264 27.064H32.2656C32.0481 27.064 31.8394 27.1504 31.6856 27.3042C31.5317 27.4581 31.4453 27.6667 31.4453 27.8843C31.4453 28.1018 31.5317 28.3105 31.6856 28.4643C31.8394 28.6182 32.0481 28.7046 32.2656 28.7046H33.0264C32.8474 29.9305 32.2775 31.066 31.4015 31.942C30.5254 32.8181 29.39 33.388 28.1641 33.5669Z" fill="#76BAAF"></path><path d="M28.9512 25.1168L27.1817 26.8863L25.5231 26.0569C25.3285 25.9596 25.1033 25.9436 24.8969 26.0124C24.6905 26.0812 24.5199 26.2291 24.4226 26.4237C24.3253 26.6183 24.3092 26.8436 24.378 27.05C24.4468 27.2564 24.5948 27.427 24.7894 27.5243L26.9769 28.6181C27.1309 28.6951 27.3052 28.7217 27.4751 28.6941C27.6451 28.6665 27.802 28.5861 27.9238 28.4644L30.1113 26.2769C30.263 26.1226 30.3477 25.9147 30.3468 25.6983C30.3459 25.4819 30.2596 25.2746 30.1066 25.1215C29.9535 24.9685 29.7463 24.8822 29.5299 24.8813C29.3135 24.8804 29.1055 24.9651 28.9512 25.1168V25.1168Z" fill="#FE9435"></path></g><defs><clipPath id="clip0_454_1424"><rect width="35" height="35" fill="white" transform="translate(0 0.540527)"></rect></clipPath></defs></svg>