<svg xmlns="http://www.w3.org/2000/svg" width="170" height="150" viewBox="0 0 170 150" fill="none"><path fill-rule="evenodd" clip-rule="evenodd" d="M56.3079 0.180975C53.9308 0.751093 43.1235 6.36446 38.5213 9.41895C32.5583 13.3772 29.227 16.0937 24.1956 21.1004C7.9353 37.2819 1.78844 54.2541 0.2794 87.134C0.0619706 91.8702 -0.0444167 105.06 0.0174209 119.565C0.114832 142.298 0.164036 144.097 0.719244 145.213C1.50385 146.789 3.08802 148.383 4.75897 149.278L6.10643 150H34.8642C58.3718 150 63.8574 149.917 64.9123 149.544C66.5553 148.964 68.6166 147.105 69.5472 145.366L70.2713 144.013L70.3617 115.6C70.4611 84.3579 70.5016 85.0621 68.4547 82.5903C67.9001 81.9208 66.6687 80.9854 65.7182 80.5114L63.9901 79.6499H50.2585H36.5265L36.5292 77.2384C36.5352 71.9111 37.8195 64.4068 39.6826 58.813C43.8915 46.1756 51.2512 38.2016 65.1191 31.2524C67.8174 29.9006 70.4295 28.3453 71.0236 27.7376C72.5602 26.1649 73.2055 24.2311 73.036 21.7044C72.9123 19.8567 72.4336 18.645 68.9537 11.3665C64.8635 2.81203 64.0725 1.65051 61.6516 0.641661C60.1542 0.0176572 57.8259 -0.182916 56.3079 0.180975ZM150.893 1.25103C128.523 11.0318 111.47 27.6561 103.905 47.0587C101.754 52.5753 99.8276 60.9827 98.7245 69.6712C97.3445 80.54 97.2072 84.6293 97.2039 114.908C97.2005 142.823 97.2265 144.065 97.8312 145.283C98.6341 146.901 100.061 148.328 101.81 149.265L103.185 150H132.109C160.809 150 161.045 149.995 162.529 149.3C164.311 148.467 165.66 147.169 166.635 145.348C167.348 144.016 167.35 143.951 167.44 115.6C167.539 84.3579 167.58 85.0621 165.533 82.5903C164.979 81.9208 163.747 80.9854 162.797 80.5114L161.068 79.6499H147.171C133.624 79.6499 133.272 79.6336 133.272 79.0026C133.272 76.5279 134.123 69.1736 134.794 65.848C135.827 60.7303 136.92 57.4266 139.088 52.8737C143.675 43.2409 150.664 36.7264 162.529 31.0249C168.653 28.0815 169.981 26.5255 169.999 22.2722C170.009 19.9774 169.954 19.8301 166.2 12.036C164.105 7.68698 161.947 3.58871 161.403 2.92912C159.022 0.0392776 155.097 -0.587388 150.893 1.25103Z" fill="#87A7F3"></path></svg>