<svg xmlns="http://www.w3.org/2000/svg" width="35" height="35" viewBox="0 0 35 35" fill="none"><path d="M17.5 8.20312C15.2379 8.20312 13.3984 10.0426 13.3984 12.3047C13.3984 14.5776 15.2346 16.4062 17.5 16.4062C19.806 16.4062 21.6016 14.5431 21.6016 12.3047C21.6016 10.0426 19.7621 8.20312 17.5 8.20312Z" fill="#FE9435"></path><path d="M17.5 0C10.7148 0 5.19531 5.51947 5.19531 12.3047C5.19531 14.5968 5.83017 16.8338 7.03083 18.7745L16.7991 34.5149C17.2041 35.169 18.1591 35.159 18.5515 34.5008L28.0704 18.6082C29.2039 16.7087 29.8047 14.5287 29.8047 12.3047C29.8047 5.51947 24.2852 0 17.5 0ZM17.5 18.4707C14.0584 18.4707 11.334 15.6694 11.334 12.3047C11.334 8.91208 14.1074 6.13867 17.5 6.13867C20.8926 6.13867 23.666 8.91208 23.666 12.3047C23.666 15.6397 20.9782 18.4707 17.5 18.4707Z" fill="#76BAAF"></path></svg>