<svg xmlns="http://www.w3.org/2000/svg" width="21" height="25" viewBox="0 0 21 25" fill="none"><path fill-rule="evenodd" clip-rule="evenodd" d="M10.3125 8.625C9.10625 8.625 8.125 9.60625 8.125 10.8138C8.125 12.02 9.10625 13 10.3125 13C11.5188 13 12.5 12.02 12.5 10.8138C12.5 9.60625 11.5188 8.625 10.3125 8.625ZM10.3125 14.875C8.0725 14.875 6.25 13.0538 6.25 10.8137C6.25 8.5725 8.0725 6.75 10.3125 6.75C12.5525 6.75 14.375 8.5725 14.375 10.8137C14.375 13.0538 12.5525 14.875 10.3125 14.875Z" fill="#1DBFCC"></path><mask id="mask0_1131_523" style="mask-type:alpha" maskUnits="userSpaceOnUse" x="0" y="0" width="21" height="25"><path fill-rule="evenodd" clip-rule="evenodd" d="M0 0.5H20.6244V24.875H0V0.5Z" fill="white"></path></mask><g mask="url(#mask0_1131_523)"><path fill-rule="evenodd" clip-rule="evenodd" d="M10.3125 2.375C5.66 2.375 1.875 6.19625 1.875 10.8912C1.875 16.865 8.905 22.685 10.3125 22.995C11.72 22.6837 18.75 16.8637 18.75 10.8912C18.75 6.19625 14.965 2.375 10.3125 2.375ZM10.3125 24.875C8.07 24.875 0 17.935 0 10.8912C0 5.16125 4.62625 0.5 10.3125 0.5C15.9987 0.5 20.625 5.16125 20.625 10.8912C20.625 17.935 12.555 24.875 10.3125 24.875Z" fill="#1DBFCC"></path></g></svg>