<svg xmlns="http://www.w3.org/2000/svg" width="20" height="21" viewBox="0 0 20 21" fill="none"><mask style="mask-type:alpha" maskUnits="userSpaceOnUse" x="3" y="12" width="14" height="7"><path fill-rule="evenodd" clip-rule="evenodd" d="M3.33203 12.3041H16.5319V18.4491H3.33203V12.3041Z" fill="white"></path></mask><g><path fill-rule="evenodd" clip-rule="evenodd" d="M9.93286 13.5541C6.38203 13.5541 4.58203 14.1641 4.58203 15.3682C4.58203 16.5832 6.38203 17.1991 9.93286 17.1991C13.4829 17.1991 15.282 16.5891 15.282 15.3849C15.282 14.1699 13.4829 13.5541 9.93286 13.5541ZM9.93286 18.4491C8.30036 18.4491 3.33203 18.4491 3.33203 15.3682C3.33203 12.6216 7.09953 12.3041 9.93286 12.3041C11.5654 12.3041 16.532 12.3041 16.532 15.3849C16.532 18.1316 12.7654 18.4491 9.93286 18.4491Z" fill="#130F26"></path></g><mask style="mask-type:alpha" maskUnits="userSpaceOnUse" x="5" y="1" width="10" height="10"><path fill-rule="evenodd" clip-rule="evenodd" d="M5.50781 1.89075H14.3578V10.7396H5.50781V1.89075Z" fill="white"></path></mask><g><path fill-rule="evenodd" clip-rule="evenodd" d="M9.93367 3.08038C8.14951 3.08038 6.69784 4.53121 6.69784 6.31538C6.69201 8.09371 8.13284 9.54371 9.9095 9.55038L9.93367 10.1454V9.55038C11.717 9.55038 13.1678 8.09871 13.1678 6.31538C13.1678 4.53121 11.717 3.08038 9.93367 3.08038ZM9.93367 10.7395H9.90701C7.47201 10.732 5.49951 8.74622 5.50784 6.31288C5.50784 3.87538 7.49284 1.89038 9.93367 1.89038C12.3737 1.89038 14.3578 3.87538 14.3578 6.31538C14.3578 8.75538 12.3737 10.7395 9.93367 10.7395Z" fill="#130F26"></path></g></svg>