<svg xmlns="http://www.w3.org/2000/svg" width="18" height="19" fill="none"><mask style="mask-type:alpha" maskUnits="userSpaceOnUse" x="0" y="0" width="17" height="18"><path fill-rule="evenodd" clip-rule="evenodd" d="M.666.89h16.23v16.232H.667V.89Z" fill="#fff"></path></mask><g><path fill-rule="evenodd" clip-rule="evenodd" d="M8.782 2.14a6.873 6.873 0 0 0-6.866 6.866 6.874 6.874 0 0 0 6.866 6.865 6.873 6.873 0 0 0 6.865-6.865A6.873 6.873 0 0 0 8.782 2.14m0 14.98c-4.475 0-8.116-3.64-8.116-8.115S4.306.89 8.782.89c4.475 0 8.115 3.64 8.115 8.115s-3.64 8.116-8.115 8.116" fill="#130F26"></path></g><mask style="mask-type:alpha" maskUnits="userSpaceOnUse" x="13" y="13" width="5" height="6"><path fill-rule="evenodd" clip-rule="evenodd" d="M13.365 13.98h4.187v4.179h-4.187v-4.18Z" fill="#fff"></path></mask><g><path fill-rule="evenodd" clip-rule="evenodd" d="M16.927 18.159a.623.623 0 0 1-.442-.183l-2.936-2.928a.625.625 0 0 1 .883-.886l2.937 2.93a.624.624 0 0 1-.442 1.067" fill="#130F26"></path></g></svg>